<?xml version="1.0" standalone="no"?>
<!DOCTYPE svg PUBLIC "-//W3C//DTD SVG 1.1//EN" "http://www.w3.org/Graphics/SVG/1.1/DTD/svg11.dtd" >
<svg>
<metadata>
Created by FontForge 20090914 at Wed Feb 25 23:25:29 2015
 By www-data
</metadata>
<defs>
<font id="ciscons" horiz-adv-x="512" >
  <font-face 
    font-family="ciscons"
    font-weight="400"
    font-stretch="normal"
    units-per-em="512"
    panose-1="0 0 0 0 0 0 0 0 0 0"
    ascent="480"
    descent="-32"
    bbox="-0.500732 -37.002 549.002 475.198"
    underline-thickness="0"
    underline-position="0"
    unicode-range="U+0001-U+FFFD"
  />
<missing-glyph horiz-adv-x="0" 
 />
    <glyph glyph-name=".notdef" unicode="&#xfffd;" horiz-adv-x="0" 
 />
    <glyph glyph-name="u0" horiz-adv-x="0" 
 />
    <glyph glyph-name="u0" horiz-adv-x="0" 
 />
    <glyph glyph-name="u1" horiz-adv-x="0" 
 />
    <glyph glyph-name="u20" unicode=" " horiz-adv-x="256" 
 />
    <glyph glyph-name="uE600" unicode="&#xe600;" 
d="M432 378c6.66699 0 12.5 -2.5 17.5 -7.5s7.5 -11.167 7.5 -18.5v-277c0 -7.33301 -2.5 -13.333 -7.5 -18s-10.833 -7 -17.5 -7h-353c-7.33301 0 -13.333 2.33301 -18 7s-7 10.667 -7 18v277c0 7.33301 2.5 13.5 7.5 18.5s10.833 7.5 17.5 7.5h353zM255 214
c7.33301 0 13.5 2.5 18.5 7.5s7.5 10.833 7.5 17.5s-2.5 12.5 -7.5 17.5s-11.167 7.5 -18.5 7.5s-13.333 -2.33301 -18 -7s-7 -10.667 -7 -18s2.33301 -13.333 7 -18s10.667 -7 18 -7zM419 340l-0.00390625 0.998047h-327v-253h111c-7.33301 8 -12 16.333 -14 25
s-0.666992 15.334 4 20.001c5.33301 4.66699 12.666 5.83398 21.999 3.50098s18.333 -7.83301 27 -16.5l1 -1v38c-6 4.66699 -10 12.667 -12 24c-16.667 -12 -29.334 -13.333 -38.001 -4c-8 8 -6.33301 20.667 5 38c-20.667 3.33301 -31 11.333 -31 24s10.333 20.667 31 24
c-11.333 17.333 -13 30 -5 38c8.66699 8.66699 21.334 7.33398 38.001 -3.99902c4.66699 20 12.667 30 24 30c12.667 0 20.667 -10 24 -30c17.333 11.333 30.333 12.666 39 3.99902c8 -8 6.33301 -20.667 -5 -38c20.667 -3.33301 31 -11.333 31 -24
c-1.33301 -12.667 -11.666 -20.667 -30.999 -24c11.333 -17.333 13 -30 5 -38c-8.66699 -8.66699 -21.667 -7.33398 -39 3.99902c-2 -10.667 -5.66699 -18.667 -11 -24v-38c0 0.666992 0.333008 1 1 1c8.66699 8.66699 17.834 14.334 27.501 17.001
s16.834 1.66699 21.501 -3c4.66699 -5.33301 5.83398 -12.333 3.50098 -21s-7.16602 -17 -14.499 -25h112v252z" />
    <glyph glyph-name="uE601" unicode="&#xe601;" 
d="M292 205c20 0 37 -7.16699 51 -21.5s21 -31.5 21 -51.5s-7 -37 -21 -51s-31 -21 -51 -21s-37.167 7 -51.5 21s-21.5 31 -21.5 51s7.16699 37.167 21.5 51.5s31.5 21.5 51.5 21.5zM312 88l-8.99902 43c8.66699 4.66699 13 12 13 22c0 6.66699 -2.33301 12.334 -7 17.001
s-10.334 7 -17.001 7s-12.5 -2.33301 -17.5 -7s-7.5 -10.334 -7.5 -17.001c0 -10 4.66699 -17.333 14 -22l-9 -43h40zM292.001 229c-22 0 -41.6689 -6.83398 -59.002 -20.501s-28.666 -31.167 -33.999 -52.5h-112c-6.66699 0 -12.334 2.33301 -17.001 7s-7 10.334 -7 17.001
v145c0 6.66699 2.33301 12.334 7 17.001s10.334 7 17.001 7h217c6.66699 0 12.334 -2.33301 17.001 -7s7 -10.334 7 -17.001v-103c-12.667 4.66699 -24.667 7 -36 7zM194.999 216.999l106 88c5.33301 5.33301 5.33301 11 0 17c-6 5.33301 -11.667 5.33301 -17 0l-89 -71
l-88 71c-5.33301 5.33301 -11 5.33301 -17 0c-5.33301 -6 -5.33301 -11.667 0 -17zM411.999 345.999c24.667 -24 37 -54.333 37 -91c0 -38 -13 -70 -39 -96c-2 -2 -4.33301 -3 -7 -3c-3.33301 0 -6 1 -8 3c-4.66699 5.33301 -4.66699 10.333 0 15c22 22 33 49 33 81
c0 30 -10.333 55.333 -31 76c-4.66699 4.66699 -4.66699 9.66699 0 15c5.33301 4.66699 10.333 4.66699 15 0zM373.999 310.999c15.333 -14.667 23 -33.999 23 -57.999c0 -23.333 -8 -43.333 -24 -60c-2 -2 -4.66699 -3 -8 -3c-2.66699 0 -5 1 -7 3
c-5.33301 4.66699 -5.33301 9.66699 0 15c12 12 18 27 18 45c0 17.333 -5.66699 31.666 -17 42.999c-4.66699 5.33301 -4.66699 10.333 0 15s9.66699 4.66699 15 0z" />
    <glyph glyph-name="uE602" unicode="&#xe602;" 
d="M177 182c38.667 0 77.667 -9 117 -27l11 -99h-251l10 100c40 17.333 77.667 26 113 26zM129 261l-9.99902 37c-5.33301 21.333 -3 41 7 59c12.667 22.667 30.334 34 53.001 34c24 0 41.667 -11.333 53 -34c10 -18 12.333 -37.667 7 -59l-9 -37
c-2.66699 -11.333 -8.83398 -20.333 -18.501 -27s-20.5 -10 -32.5 -10c-11.333 0 -21.833 3.33301 -31.5 10s-15.834 15.667 -18.501 27zM436.001 332c12.667 0 19 -6.33496 19 -19.002c0 -5.33301 -1.83301 -9.66602 -5.5 -12.999s-8.16699 -5 -13.5 -5h-50v-50
c0 -12.667 -6.33301 -19 -19 -19c-5.33301 0 -9.83301 1.83301 -13.5 5.5s-5.5 8.16699 -5.5 13.5v50h-50c-5.33301 0 -9.66602 1.83301 -12.999 5.5s-5 7.83398 -5 12.501c0 5.33301 1.66699 9.83301 5 13.5s7.66602 5.5 12.999 5.5h50v50
c0 5.33301 1.83301 9.83301 5.5 13.5s8.16699 5.5 13.5 5.5c12.667 0 19 -6.33301 19 -19v-50h50z" />
    <glyph glyph-name="uE603" unicode="&#xe603;" 
d="M333 415c6.66699 0 12.332 -2.33301 16.999 -7s7 -10.334 7 -17.001v-326c-33.333 -22.667 -69.333 -34 -108 -34s-74.667 11.333 -108 34v326c0 6.66699 2.33301 12.334 7 17.001s10.334 7 17.001 7h168zM320.998 139v240h-144v-240h36v-36c0 -10 3.5 -18.5 10.5 -25.5
s15.5 -10.5 25.5 -10.5s18.5 3.5 25.5 10.5s10.5 15.5 10.5 25.5v36h36zM236.998 115v-24h24v24h-24z" />
    <glyph glyph-name="uE604" unicode="&#xe604;" 
d="M167 274c-6.66699 0 -12.334 2.5 -17.001 7.5s-7 10.833 -7 17.5s2.33301 12.5 7 17.5s10.334 7.5 17.001 7.5c7.33301 0 13.333 -2.33301 18 -7s7 -10.667 7 -18c0 -6.66699 -2.5 -12.5 -7.5 -17.5s-10.833 -7.5 -17.5 -7.5zM343 275c-6.66699 0 -12.5 2.33301 -17.5 7
s-7.5 10.334 -7.5 17.001c0 7.33301 2.33301 13.333 7 18s10.667 7 18 7c6.66699 0 12.334 -2.5 17.001 -7.5s7 -10.833 7 -17.5s-2.33301 -12.334 -7 -17.001s-10.334 -7 -17.001 -7zM255 300c-7.33301 0 -13.333 2.33301 -18 7s-7 10.667 -7 18
c0 6.66699 2.5 12.334 7.5 17.001s10.833 7 17.5 7s12.334 -2.33301 17.001 -7s7 -10.334 7 -17.001s-2.33301 -12.5 -7 -17.5s-10.334 -7.5 -17.001 -7.5zM307 260l4 -59h-110l5 60c16 10 32.333 15 49 15s34 -5.33301 52 -16zM325 251
c0.666992 0 2.16797 0.166992 4.50098 0.5s4.16602 0.5 5.49902 0.5c14 0 27.333 -3.66699 40 -11l4 -40h-50zM186.001 250l-4.00098 -50h-50l3 40c16 7.33301 29.333 11 40 11c1.33301 0 3.33301 -0.166992 6 -0.5s4.33398 -0.5 5.00098 -0.5zM431 425
c6.66699 0 12.5 -2.5 17.5 -7.5s7.5 -10.833 7.5 -17.5v-263c0 -6.66699 -2.5 -12.5 -7.5 -17.5s-10.833 -7.5 -17.5 -7.5h-351c-6.66699 0 -12.5 2.33301 -17.5 7s-7.5 10.667 -7.5 18v263c0 6.66699 2.5 12.5 7.5 17.5s10.833 7.5 17.5 7.5h351zM418 388v1h-326v-239h326
v238zM155 46c28.667 18 62 27 100 27s71.333 -9 100 -27v-22h-200v22z" />
    <glyph glyph-name="uE605" unicode="&#xe605;" 
d="M395 201c0 -44.667 -16.666 -80.333 -49.999 -107l19 -28c6 -7.33301 5 -13.666 -3 -18.999c-7.33301 -4.66699 -14 -3.66699 -20 3l-19 28c-20.667 -11.333 -43 -17 -67 -17s-46 5.33301 -66 16l-21 -29c-5.33301 -8 -11.666 -9 -18.999 -3
c-8 5.33301 -9.33301 11.666 -4 18.999l20 29c-33.333 28 -50 64 -50 108c0 36 12.167 67.333 36.5 94s54.166 41.667 89.499 45v38c0 9.33301 4.66699 14 14 14c3.33301 0 6.5 -1.33301 9.5 -4s4.5 -6 4.5 -10v-38c35.333 -3.33301 65.166 -18.333 89.499 -45
s36.5 -58 36.5 -94zM143.001 201.001c0 -31.333 10.833 -57.833 32.5 -79.5s48.167 -32.5 79.5 -32.5s57.833 10.833 79.5 32.5s32.5 48.167 32.5 79.5c0 30.667 -11 57 -33 79s-48.333 33 -79 33s-57 -11 -79 -33s-33 -48.333 -33 -79zM81.001 370.001
c14.667 14.667 32.332 21.998 52.999 21.998s38.334 -7.33301 53.001 -22l-106 -106c-14.667 14.667 -22 32.334 -22 53.001s7.33301 38.334 22 53.001zM428.999 369.999c14.667 -14.667 21.998 -32.332 21.998 -52.999s-7.33301 -38.334 -22 -53.001l-106 106
c14.667 14.667 32.334 22 53.001 22s38.334 -7.33301 53.001 -22zM331.997 273.001c7.33301 -6 7.33301 -12.333 0 -19l-64 -65c-6 -6 -12.667 -6 -20 0l-39 40c-7.33301 6 -7.33301 12.667 0 20c6 6 12.333 6 19 0l30 -30l55 54c6 7.33301 12.333 7.33301 19 0z" />
    <glyph glyph-name="uE606" unicode="&#xe606;" 
d="M426 423c8 0 14.833 -2.66699 20.5 -8s8.5 -12 8.5 -20v-342c0 -8 -2.83301 -14.667 -8.5 -20s-12.5 -8 -20.5 -8h-340c-8 0 -14.833 2.66699 -20.5 8s-8.5 12 -8.5 20v342c0 8 2.83301 14.667 8.5 20s12.5 8 20.5 8h340zM322 348
c-5.33301 -8.66699 -6.33105 -18.333 -2.99805 -29l5 -18c3.33301 -12.667 11.666 -19 24.999 -19s21.666 6.33301 24.999 19l5 18c2 11.333 0.666992 21 -4 29c-6 11.333 -14.667 17 -26 17s-20.333 -5.66699 -27 -17zM239.002 276.001
c-6 -10 -7.33203 -21.333 -3.99902 -34l5 -22c4.66699 -14.667 14.667 -22 30 -22s25.333 7.33301 30 22l6 22c3.33301 12 1.66602 23.333 -5.00098 34c-6.66699 13.333 -17 20 -31 20s-24.333 -6.66699 -31 -20zM141.003 301.001
c-5.33301 -9.33301 -6.33105 -19.001 -2.99805 -29.001l5 -18c3.33301 -12.667 11.666 -19 24.999 -19s21.666 6.33301 24.999 19l5 18c2 10.667 0.666992 20.334 -4 29.001c-5.33301 11.333 -14 17 -26 17c-11.333 0 -20.333 -5.66699 -27 -17zM167.005 161l3.00098 31.999
c19.333 7.33301 34.333 12 45 14c-18.667 7.33301 -37.334 11 -56.001 11c-18 0 -36 -3.66699 -54 -11c-2 -15.333 -3.66699 -30.666 -5 -45.999h67zM198.006 100.999h147l-6 63c-25.333 10 -48.333 15 -69 15c-22 0 -44 -4.66699 -66 -14zM321.006 208.999l92 -0.000976562
l-5 47c-18 7.33301 -35.667 11 -53 11c-10 0 -17 -0.333008 -21 -1c0 -4.66699 -0.666992 -11 -2 -19l-9 -34c0 -1.33301 -0.666992 -2.66602 -2 -3.99902z" />
    <glyph glyph-name="uE607" unicode="&#xe607;" 
d="M349 285c3.33301 0 6 -1.33301 8 -4c6.66699 -5.33301 6.66699 -10.666 0 -15.999l-88 -89c-2 -2 -4.33301 -3 -7 -3c-0.666992 -0.666992 -2 -0.666992 -4 0c-2 0 -4 1 -6 3l-89 89c-6.66699 5.33301 -6.66699 10.666 0 15.999c2 2.66699 4.66699 4 8 4
c4 0 7 -1.33301 9 -4l80 -80l81 81v0c2 2 4.66699 3 8 3zM426 423c8 0 14.833 -2.66699 20.5 -8s8.5 -12 8.5 -20v-342c0 -8 -2.83301 -14.667 -8.5 -20s-12.5 -8 -20.5 -8h-340c-8 0 -14.833 2.66699 -20.5 8s-8.5 12 -8.5 20v342c0 8 2.83301 14.667 8.5 20s12.5 8 20.5 8
h340zM391 147v152c0 12.667 -6.33301 19 -19 19h-229c-5.33301 0 -9.83301 -1.83301 -13.5 -5.5s-5.5 -8.16699 -5.5 -13.5v-152c0 -5.33301 1.83301 -9.83301 5.5 -13.5s8.16699 -5.5 13.5 -5.5h229c12.667 0 19 6.33301 19 19z" />
    <glyph glyph-name="uE608" unicode="&#xe608;" 
d="M426 423c8 0 14.833 -2.66699 20.5 -8s8.5 -12 8.5 -20v-342c0 -8 -2.83301 -14.667 -8.5 -20s-12.5 -8 -20.5 -8h-93v153h51l8 59h-59v38c0 20 9.66699 30 29 30h32v53c-6.66699 1.33301 -22 2 -46 2c-23.333 0 -42 -6.83301 -56 -20.5s-21 -33.167 -21 -58.5v-44h-51
v-59h51v-153h-185c-8 0 -14.833 2.66699 -20.5 8s-8.5 12 -8.5 20v342c0 8 2.83301 14.667 8.5 20s12.5 8 20.5 8h340z" />
    <glyph glyph-name="uE609" unicode="&#xe609;" horiz-adv-x="476" 
d="M463 359c-18.667 -8.66699 -36.3301 -13.334 -52.9971 -14.001c19.333 11.333 32.666 28 39.999 50c-19.333 -10.667 -38.666 -18 -57.999 -22c-18.667 19.333 -41.334 29 -68.001 29c-25.333 0 -47 -9 -65 -27s-27 -39.667 -27 -65c0 -4.66699 0.666992 -11.667 2 -21
c-38.667 2 -74 11.333 -106 28c-32.667 16.667 -60.667 39.334 -84 68.001c-8.66699 -15.333 -13 -30.666 -13 -45.999c0 -16.667 4 -31.334 12 -44.001c7.33301 -14 17.333 -25 30 -33c-16.667 1.33301 -30.667 5.33301 -42 12v-1c0 -22 7 -41.667 21 -59
s31.667 -28 53 -32c-8 -2 -16 -3 -24 -3s-14 0.333008 -18 1c6 -18 17 -33 33 -45c15.333 -12 33 -18.333 53 -19c-32.667 -26 -70.667 -39 -114 -39c-10.667 0 -18 0.333008 -22 1c40.667 -27.333 87.667 -41 141 -41c33.333 0 64.333 5 93 15
c31.333 12 55.666 26 72.999 42c19.333 16 37 36 53 60c15.333 23.333 26.333 47 33 71c7.33301 26 11 50.667 11 74v12c17.333 12.667 32.666 28.667 45.999 48z" />
    <glyph glyph-name="uE60A" unicode="&#xe60a;" horiz-adv-x="220" 
d="M146 317v40c0 7.33301 0.333008 12 1 14c0 2.66699 1.33301 6 4 10s5.66699 6.33301 9 7c6.66699 1.33301 12.667 2 18 2h41v81h-65c-37.333 0 -64.333 -9 -81 -27c-16 -18 -24 -44.333 -24 -79v-48h-49v-82h49v-235h97v235h65l8 82h-73z" />
    <glyph glyph-name="uE60B" unicode="&#xe60b;" 
d="M186 217c-7.33301 -9.33301 -19.999 -14 -37.999 -14c-22 0 -39 10 -51 30s-18 41.667 -18 65c0 19.333 3.66699 33.333 11 42c9.33301 12.667 22.666 19 39.999 19c21.333 0 38.5 -11.5 51.5 -34.5s19.5 -46.5 19.5 -70.5c0 -14 -5 -26.333 -15 -37zM57.001 101
l-0.000976562 100.999c18.667 -14.667 39.334 -22 62.001 -22c8 0 14 0.333008 18 1c-3.33301 -11.333 -5 -18.666 -5 -21.999c0 -12 5.66699 -25 17 -39c-2.66699 0 -9.16699 -0.166992 -19.5 -0.5s-18.833 -0.833008 -25.5 -1.5s-14.667 -2.5 -24 -5.5
s-17 -6.83301 -23 -11.5zM243 26.999l0.000976562 -1.99902h-157c-8 0 -14.833 2.66699 -20.5 8s-8.5 12 -8.5 20v16c7.33301 10 20 18.333 38 25c20 6.66699 40 10 60 10c6 0 10.333 -0.333008 13 -1l18 -12.5l16.5 -11.5l13.5 -10c5.33301 -4 9.16602 -7.33301 11.499 -10
l8 -9.5c3 -3.66699 5 -7.33398 6 -11.001s1.5 -7.5 1.5 -11.5zM426.001 423c8 0 14.832 -2.66797 20.499 -8.00098s8.5 -12 8.5 -20v-342c0 -8 -2.83301 -14.667 -8.5 -20s-12.5 -8 -20.5 -8h-150c2 6 3 12.667 3 20c0 12 -3.66699 24 -11 36s-13.666 20.333 -18.999 25
l-28 24l-21 16c-10 8 -15 16.333 -15 25c0 6.66699 5.33301 16 16 28c10 8 17.833 14.833 23.5 20.5s11 13.834 16 24.501s7.5 22.667 7.5 36c0 26.667 -11.667 51 -35 73h35l32 25h-121c-40 0 -72.667 -10.667 -98 -32c-2 -0.666992 -3.33301 -2 -4 -4v53
c0 8 2.83301 14.667 8.5 20s12.5 8 20.5 8h340zM450 275.999v30h-73v72h-31v-72h-73v-30h73v-73h31v73h73z" />
    <glyph glyph-name="uE60C" unicode="&#xe60c;" horiz-adv-x="476" 
d="M250 57c0 -13.333 -2.66504 -23.998 -7.99805 -31.998c-5.33301 -8.66699 -12.333 -15.667 -21 -21c-7.33301 -4 -17 -7.66699 -29 -11c-10 -2 -20.667 -3 -32 -3c-13.333 0 -25.333 1.33301 -36 4c-12.667 3.33301 -24 7.66602 -34 12.999c-10.667 6 -19.667 14 -27 24
c-6.66699 9.33301 -10 21 -10 35c0 12 2.66699 22 8 30c4.66699 8.66699 11 16 19 22c5.33301 3.33301 14.666 7.66602 27.999 12.999c15.333 4 25.666 6.33301 30.999 7c13.333 1.33301 23.333 2 30 2c7.33301 0 12.333 -0.333008 15 -1c1.33301 0 4 -2 8 -6l10 -6l2 -1
c0.666992 -0.666992 1.66699 -1.5 3 -2.5s2.66602 -2.16699 3.99902 -3.5c5.33301 -4 8.33301 -6.33301 9 -7c2.66699 -2.66699 5.33398 -5 8.00098 -7c0.666992 -0.666992 1.5 -1.66699 2.5 -3s2 -2.5 3 -3.5s1.5 -1.83301 1.5 -2.5c1.33301 -1.33301 3.33301 -4 6 -8
c2 -2.66699 3.66699 -6 5 -10c0.666992 -2 1.66699 -5.66699 3 -11c0.666992 -2 1 -5.66699 1 -11zM216.002 303.002c0 -18.667 -4.00098 -34 -12.001 -46c-9.33301 -11.333 -23 -17 -41 -17c-10.667 0 -19.667 2.33301 -27 7c-7.33301 4 -15 10.667 -23 20
c-4 5.33301 -9.33301 14 -16 26c-5.33301 13.333 -8.66602 23.333 -9.99902 30c-2 10 -3 19.333 -3 28c0 18 5 34 15 48c8.66699 12.667 22.334 19 41.001 19c12 0 23.333 -3.66699 34 -11c10 -8 18 -18 24 -30c5.33301 -10 9.66602 -22.333 12.999 -37s5 -27 5 -37z
M179.001 439.002c-18 0 -35.998 -2 -53.998 -6c-27.333 -6 -49.666 -19.333 -66.999 -40c-18 -20.667 -27 -44.667 -27 -72c0 -28 10.333 -51.333 31 -70c19.333 -18.667 43.666 -28 72.999 -28c8 0 14.667 0.333008 20 1l-2 -6l-3 -6c0 -0.666992 -0.166992 -1.5 -0.5 -2.5
s-0.5 -2.16699 -0.5 -3.5c-0.666992 -1.33301 -1 -3.33301 -1 -6c0 -13.333 6.33301 -27.666 19 -42.999c-10 0 -24.333 -1.33301 -43 -4c-16 -2 -31 -5.33301 -45 -10c-17.333 -6 -31 -12.667 -41 -20c-12 -8.66699 -21 -19.334 -27 -32.001
c-7.33301 -14.667 -11 -27.334 -11 -38.001c0 -13.333 3 -25 9 -35c4 -9.33301 11.333 -18 22 -26c11.333 -7.33301 21.666 -12.666 30.999 -15.999c9.33301 -4 20.666 -7.33301 33.999 -10c12 -2 23.667 -3 35 -3c50.667 0 90.667 12.667 120 38c26.667 23.333 40 50 40 80
c0 9.33301 -1.66699 19.666 -5 30.999c-2.66699 9.33301 -6.66699 17.333 -12 24c-3.33301 4.66699 -9 11 -17 19c-4 4 -10 9.33301 -18 16c-7.33301 4.66699 -13 9.33398 -17 14.001c-4 3.33301 -8 7.66602 -12 12.999c-3.33301 4 -5 9 -5 15c0 6.66699 2 13 6 19
c6.66699 8 12 14 16 18c6 4.66699 12.333 10.667 19 18c6.66699 6.66699 12 15.334 16 26.001c4.66699 10 7 22.667 7 38c0 16 -3.66699 32 -11 48c-8 16.667 -18.667 28.667 -32 36h39l38 23h-124zM475.003 366.002h-73v73h-36v-73h-73v-37h73v-73h36v73h73v37z" />
    <glyph glyph-name="uE60D" unicode="&#xe60d;" horiz-adv-x="439" 
d="M357 439l-274.995 0.00195312c-22.667 0 -42 -8 -58 -24s-24 -35.333 -24 -58v-275c0 -22.667 8 -42 24 -58s35.333 -24 58 -24h53c-4 28.667 -3.33301 53 2 73l28 118c-4.66699 8.66699 -7 20 -7 34c0 16.667 4 30 12 40c8 10.667 17.667 16 29 16c10 0 17.333 -3 22 -9
c5.33301 -6.66699 8 -14.334 8 -23.001c0 -6.66699 -1.33301 -13.667 -4 -21c-2.66699 -12 -5.33398 -22 -8.00098 -30c-1.33301 -4 -2.83301 -9 -4.5 -15s-2.83398 -9.66699 -3.50098 -11c-2 -11.333 0.333008 -21.333 7 -30c6.66699 -8 16 -12 28 -12
c20 0 36.333 11.333 49 34c13.333 22.667 20 49.667 20 81c0 24.667 -8 44.667 -24 60c-16 16 -38.333 24 -67 24c-30.667 0 -56.334 -10.333 -77.001 -31c-20 -20 -30 -44.333 -30 -73c0 -16.667 5 -31 15 -43c2.66699 -4 3.66699 -8 3 -12c-2 -6 -3.33301 -11.667 -4 -17
c-0.666992 -2.66699 -2.33398 -4.66699 -5.00098 -6c-2 -0.666992 -4 -0.666992 -6 0c-14.667 6 -26 16.667 -34 32c-7.33301 14.667 -11 31.667 -11 51c0 12 2 24.667 6 38c3.33301 11.333 9.66602 23.333 18.999 36c10 13.333 20.333 24 31 32c12 8.66699 26.667 16 44 22
c18 5.33301 36.333 8 55 8c19.333 0 38.333 -3.66699 57 -11c16.667 -6.66699 31 -15.667 43 -27s21.333 -24.666 28 -39.999c6.66699 -16.667 10 -32.334 10 -47.001c0 -42.667 -11 -78 -33 -106s-50 -42 -84 -42c-13.333 0 -24.333 2.66699 -33 8
c-10 5.33301 -17 11.666 -21 18.999c-8 -34 -13 -54 -15 -60c-4 -17.333 -14.333 -37.333 -31 -60h208c22.667 0 42 8 58 24s24 35.333 24 58v275c0 22.667 -8 42 -24 58s-35.333 24 -58 24z" />
    <glyph glyph-name="uE60E" unicode="&#xe60e;" horiz-adv-x="439" 
d="M439 219c0 40 -9.99902 76.999 -29.999 110.999c-19.333 33.333 -45.666 59.666 -78.999 78.999c-34 20 -71 30 -111 30c-39.333 0 -76 -10 -110 -30c-32.667 -18.667 -59.334 -45 -80.001 -79c-19.333 -34.667 -29 -71.667 -29 -111c0 -44 12 -84 36 -120
c22.667 -35.333 54.334 -62.333 95.001 -81c0 22.667 1.33301 39.667 4 51l28 119c-4.66699 12 -7 23.667 -7 35c0 16.667 4.33301 30.334 13 41.001c8 10.667 18 16 30 16c8.66699 0 16 -3 22 -9c4.66699 -6.66699 7 -14.667 7 -24c0 -6 -1 -13.333 -3 -22
c-2 -9.33301 -5 -19 -9 -29c-4.66699 -16 -7 -25 -7 -27c-3.33301 -11.333 -1.33301 -21.333 6 -30c7.33301 -8 16.666 -12 27.999 -12c21.333 0 38.333 11.333 51 34s19 50 19 82c0 26 -8 46.333 -24 61c-16 16 -38.333 24 -67 24c-32.667 0 -58.667 -10.333 -78 -31
c-20 -20.667 -30 -45.334 -30 -74.001c0 -16.667 4.66699 -31.334 14 -44.001c4 -3.33301 5 -7.33301 3 -12l-2 -8c0 -1.33301 -0.166992 -2.66602 -0.5 -3.99902s-0.5 -2.33301 -0.5 -3l-1 -2c-2 -6 -5.66699 -8 -11 -6c-14.667 6 -25.667 16.667 -33 32
c-8 14.667 -12 32 -12 52c0 13.333 2 26 6 38c3.33301 10.667 9.66602 23 18.999 37c10 13.333 20.667 24 32 32c12 8.66699 26.667 16 44 22c18 5.33301 36.667 8 56 8c26.667 0 51 -6 73 -18c22 -12.667 38.333 -28 49 -46c11.333 -19.333 17 -40 17 -62
c0 -28 -5 -53.667 -15 -77c-10 -22.667 -24 -40.667 -42 -54c-17.333 -12.667 -38 -19 -62 -19c-10.667 0 -21.334 2.66699 -32.001 8c-9.33301 4.66699 -16.333 11 -21 19c-2.66699 -9.33301 -5.16699 -18.666 -7.5 -27.999l-5.5 -21.5c-1.33301 -5 -2.33301 -8.5 -3 -10.5
c-2.66699 -11.333 -10 -27 -22 -47c20.667 -6 41.334 -9 62.001 -9c39.333 0 76.333 9.66699 111 29c34 20.667 60.333 47.334 79 80.001c20 34 30 70.667 30 110z" />
    <glyph glyph-name="uE60F" unicode="&#xe60f;" horiz-adv-x="439" 
d="M100 297h-95v-283h95v283zM106 384c0 14.667 -5.00098 26.335 -15.001 35.002c-8.66699 9.33301 -21.334 14 -38.001 14c-16 0 -28.667 -4.66699 -38 -14c-10 -8.66699 -15 -20.334 -15 -35.001c0 -12.667 4.66699 -24.334 14 -35.001
c10.667 -9.33301 23.334 -14 38.001 -14h1c14.667 0 27.334 4.66699 38.001 14c10 10 15 21.667 15 35zM438.999 176.001c0 41.333 -10.001 73.001 -30.001 95.001c-19.333 21.333 -45.333 32 -78 32c-13.333 0 -24.333 -1.33301 -33 -4
c-9.33301 -2.66699 -17.666 -6.66699 -24.999 -12c-4.66699 -4 -10 -9 -16 -15c-5.33301 -6.66699 -9.33301 -12 -12 -16h1v41h-94v-14v-84v-185h94v158c0 9.33301 1 17 3 23c4 10 10 18 18 24c7.33301 6.66699 17.333 10 30 10c16.667 0 28.667 -5.66699 36 -17
c8 -10.667 12 -26.334 12 -47.001v-151h94v162z" />
    <glyph glyph-name="uE610" unicode="&#xe610;" horiz-adv-x="439" 
d="M277 120c0 12.667 -3.66699 19 -11 19c-4 0 -8.33301 -2 -13 -6v-86c4.66699 -4 9 -6 13 -6c7.33301 0 11 6.33301 11 19v60zM374 120c0 12.667 -4.33301 19 -13 19s-13 -6.33301 -13 -19v-13h26v13zM98 182v-163h-29v163h-30v27h90v-27h-31zM180 19l0.000976562 16
c-10 -12 -19.667 -18 -29 -18c-8.66699 0 -14 3.66699 -16 11c-2 5.33301 -3 12.333 -3 21v112h26v-104v-10c1.33301 -4 3.33301 -6 6 -6c5.33301 0 10.666 4 15.999 12v108h26v-142h-26zM303.001 62c0 -14.667 -1.00098 -24.334 -3.00098 -29.001
c-3.33301 -10.667 -10 -16 -20 -16c-8.66699 0 -17.667 5.33301 -27 16v-14h-25v190h25v-62c8.66699 10 17.667 15 27 15c10.667 0 17.334 -5.33301 20.001 -16c2 -5.33301 3 -14.666 3 -27.999v-56zM399 65v-17c-0.666992 -5.33301 -2.66699 -10.333 -6 -15
c-6.66699 -10.667 -17 -16 -31 -16c-12.667 0 -23 5 -31 15c-5.33301 7.33301 -8 18.333 -8 33v50c0 14.667 2.66699 25.667 8 33c7.33301 9.33301 17.333 14 30 14s23 -4.66699 31 -14c4.66699 -6.66699 7 -17.667 7 -33v-30h-51v-25c0 -12.667 4.33301 -19 13 -19
c7.33301 0 11.333 3.33301 12 10v17h26v-3zM226 325c0 -13.333 -4.33301 -20 -13 -20c-8 0 -12 6.66699 -12 20v60c0 13.333 4 20 12 20c8.66699 0 13 -6.66699 13 -20v-60zM431 111c0 47.333 -2.33301 80.666 -7 99.999c-3.33301 12.667 -9 22 -17 28
c-7.33301 7.33301 -17 12 -29 14c-38.667 3.33301 -91.667 5 -159 5c-66.667 0 -119.334 -1.66699 -158.001 -5c-12 -2 -21.667 -6.66699 -29 -14c-8 -6 -13.667 -15.333 -17 -28c-4.66699 -20.667 -7 -54 -7 -100c0 -47.333 2.33301 -80.666 7 -99.999
c3.33301 -12.667 9 -22 17 -28c7.33301 -7.33301 17 -12 29 -14c34.667 -4 87.334 -6 158.001 -6c71.333 0 124.333 2 159 6c12 2 21.667 6.66699 29 14c8 6 13.667 15.333 17 28c4.66699 20.667 7 54 7 100zM146 475l-19 -75l-21 75h-30c2 -6 5.33301 -15.167 10 -27.5
s7.66699 -20.833 9 -25.5c7.33301 -22 13 -42.333 17 -61v-77h29v77l34 114h-29zM252 380c0 15.333 -2.66797 26.666 -8.00098 33.999c-7.33301 9.33301 -17.666 14 -30.999 14c-12 0 -22 -4.66699 -30 -14c-5.33301 -7.33301 -8 -18.666 -8 -33.999v-50
c0 -14.667 2.66699 -25.667 8 -33c8 -10 18 -15 30 -15c14 0 24.333 5 31 15c5.33301 7.33301 8 18.333 8 33v50zM346.999 427h-26.001v-109c-5.33301 -8.66699 -10.666 -13 -15.999 -13c-2.66699 0 -4.66699 2.33301 -6 7v10v105h-26v-113
c0 -8.66699 0.666992 -15.667 2 -21c3.33301 -7.33301 9 -11 17 -11c9.33301 0 19 6 29 18v-16h26v143z" />
    <glyph glyph-name="uE611" unicode="&#xe611;" horiz-adv-x="439" 
d="M263 103c0 -9.33301 -3 -14 -9 -14c-2.66699 0 -5.66699 1.66699 -9 5v64c2.66699 2.66699 5.66699 4 9 4c6 0 9 -4.66699 9 -14v-45zM315 138v10c0 9.33301 3.33301 14 10 14c6 0 9 -4.66699 9 -14v-10h-19zM152 214h-66v-20h22v-121h21v121h23v20zM209 178h-19v-80
c-4 -6 -8 -9 -12 -9c-2.66699 0 -4 1.33301 -4 4v8v77h-19v-83c0 -8 0.666992 -13 2 -15c0.666992 -5.33301 4.66699 -8 12 -8s14.333 4.33301 21 13v-12h19v105zM281 146c0 11.333 -0.667969 18.333 -2.00098 21c-2 8 -7 12 -15 12
c-7.33301 0 -13.666 -3.66699 -18.999 -11v46h-19v-141h19v10c6 -7.33301 12.333 -11 19 -11c8 0 13 4 15 12c1.33301 2.66699 2 9.66699 2 21v41zM352.999 109h-19.001v-6v-4l-1 -2c-1.33301 -5.33301 -4 -8 -8 -8c-6.66699 0 -10 5 -10 15v18h38v22c0 10.667 -2 19 -6 25
c-4.66699 6.66699 -12 10 -22 10c-9.33301 0 -17 -3.33301 -23 -10c-4 -6 -6 -14.333 -6 -25v-37c0 -11.333 2 -19.333 6 -24c5.33301 -7.33301 13 -11 23 -11s17.667 3.66699 23 11c2.66699 3.33301 4.33398 7.33301 5.00098 12v12v2zM223.998 345c0 10 -3 15 -9 15
s-9 -5 -9 -15v-45c0 -9.33301 3 -14 9 -14s9 4.66699 9 14v45zM376.998 141c0 -33.333 -2.00098 -57.999 -6.00098 -73.999c-2 -8 -6 -15 -12 -21c-5.33301 -5.33301 -12.666 -8.66602 -21.999 -9.99902c-23.333 -2.66699 -62.666 -4 -117.999 -4
c-54.667 0 -93.667 1.33301 -117 4c-9.33301 1.33301 -16.666 4.66602 -21.999 9.99902c-6 6 -10 13 -12 21c-4 16 -6 40.667 -6 74s2 58 6 74c2 8.66699 6 15.667 12 21c5.33301 5.33301 12.666 8.66602 21.999 9.99902c28.667 3.33301 67.667 5 117 5
c50 0 89.333 -1.66699 118 -5c9.33301 -1.33301 16.666 -4.66602 21.999 -9.99902c6 -5.33301 10 -12.333 12 -21c4 -14.667 6 -39.334 6 -74.001zM160.997 327.001l-0.000976562 -57h-21v57c-1.33301 6 -5.66602 21 -12.999 45l-7 20l-7 20h22l16 -56l14 56h22z
M242.996 304.001c0 -12 -2 -20.333 -6 -25c-5.33301 -7.33301 -12.666 -11 -21.999 -11s-16.666 3.66699 -21.999 11c-4 6 -6 14.333 -6 25v37c0 10.667 2 19 6 25c5.33301 7.33301 12.666 11 21.999 11s16.666 -3.66699 21.999 -11c4 -6 6 -14.333 6 -25v-37z
M294.996 270.001v11.001c-8.66699 -8.66699 -16 -13 -22 -13s-10 2.66699 -12 8c-1.33301 4 -2 9.33301 -2 16v83h19v-77c0 -4.66699 0.333008 -7.33398 1 -8.00098c0 -2.66699 1.33301 -4 4 -4c4 0 8 3 12 9v80h19v-105h-19zM438.996 357.002c0 22.667 -8 42 -24 58
s-35.333 24 -58 24h-275c-22.667 0 -42 -8 -58 -24s-24 -35.333 -24 -58v-275c0 -22.667 8 -42 24 -58s35.333 -24 58 -24h275c22.667 0 42 8 58 24s24 35.333 24 58v275z" />
    <glyph glyph-name="uE612" unicode="&#xe612;" horiz-adv-x="439" 
d="M439 402c0 8 -3.66895 13.667 -11.002 17c-8.66699 3.33301 -15.334 2 -20.001 -4l-37 -37c-19.333 18.667 -42.666 33.667 -69.999 45c-25.333 10.667 -52.666 16 -81.999 16c-30 0 -58.333 -6 -85 -18c-25.333 -10 -48.666 -25.333 -69.999 -46
c-20 -20.667 -35.667 -44 -47 -70c-11.333 -28 -17 -56.667 -17 -86c0 -28.667 5.66699 -57 17 -85c11.333 -26 27 -49.333 47 -70c20.667 -20 44 -35.667 70 -47c28 -11.333 56.333 -17 85 -17c32.667 0 64 7 94 21c31.333 14.667 56.333 34 75 58c2 2 2.66699 4.33301 2 7
c0 2 -0.666992 3.66699 -2 5l-39 40c-2 1.33301 -4.66699 2 -8 2s-5.33301 -1 -6 -3c-14 -18 -31 -32 -51 -42s-41.667 -15 -65 -15c-19.333 0 -38 4 -56 12c-17.333 6.66699 -33 17 -47 31s-24.333 29.667 -31 47c-8 18 -12 36.667 -12 56c0 20 4 39 12 57
c6.66699 17.333 17 33 31 47c12 12 27.667 22.333 47 31c18 8 36.667 12 56 12c38.667 0 72 -13 100 -39l-39 -40c-6 -6 -7.33301 -12.667 -4 -20s9 -11 17 -11h128c4.66699 0 8.66699 1.66699 12 5c4 4 6 8.33301 6 13v128z" />
    <glyph glyph-name="uE613" unicode="&#xe613;" horiz-adv-x="549" 
d="M169 219c-15.333 23.333 -23.001 48 -23.001 74c0 2.66699 0.666992 8.66699 2 18c-13.333 -4 -26 -6 -38 -6s-23.333 2 -34 6c-11.333 4 -20.666 8 -27.999 12c-6.66699 4 -11 6 -13 6c-23.333 0 -35 -33.667 -35 -101c-0 -14.667 5.33301 -26 16 -34
c11.333 -7.33301 24.333 -11 39 -11h39c18.667 22.667 43.667 34.667 75 36zM474.999 37c0 13.333 -0.337891 23.3311 -1.00488 29.998c0 6 -1.33301 16.333 -4 31s-5 25 -7 31c-2.66699 9.33301 -6.66699 18.666 -12 27.999c-8 12 -14 19.667 -18 23
c-7.33301 7.33301 -15.666 12.333 -24.999 15c-9.33301 4 -19.666 6 -30.999 6c-2 0 -6.33301 -2 -13 -6c-1.33301 -0.666992 -3.33301 -2 -6 -4l-7.5 -5.5c-2.33301 -1.66699 -4.83301 -3.16699 -7.5 -4.5c-6 -4.66699 -16 -9 -30 -13c-12 -4.66699 -25 -7 -39 -7
s-26.667 2.33301 -38 7c-13.333 4 -23.666 8.33301 -30.999 13c-9.33301 6.66699 -16.333 11.334 -21 14.001c-6 4 -10 6 -12 6c-11.333 0 -22 -2 -32 -6c-10.667 -3.33301 -18.667 -8.33301 -24 -15c-6.66699 -6 -12.667 -13.667 -18 -23s-9.33301 -18.666 -12 -27.999
c-3.33301 -10.667 -6 -21 -8 -31c-1.33301 -7.33301 -2.66602 -17.666 -3.99902 -30.999c-0.666992 -6.66699 -1 -16.667 -1 -30c0 -22 7 -40 21 -54c14.667 -13.333 33 -20 55 -20h250c22.667 0 41.334 6.66699 56.001 20c13.333 14.667 20 32.667 20 54zM182.994 401.998
c0 20.667 -7.33301 38 -22 52c-14 14 -31 21 -51 21c-20.667 0 -38 -7 -52 -21s-21 -31.333 -21 -52c0 -20 7 -37 21 -51c14 -14.667 31.333 -22 52 -22c20 0 37 7.33301 51 22c14.667 14 22 31 22 51zM383.994 292.998c0 30 -10.666 55.668 -31.999 77.001
s-47.333 32 -78 32s-56.334 -10.667 -77.001 -32c-21.333 -20.667 -32 -46.334 -32 -77.001c0 -31.333 10.667 -57.333 32 -78c21.333 -21.333 47 -32 77 -32c29.333 0 55.333 10.667 78 32c21.333 21.333 32 47.333 32 78zM548.995 227.999
c0 67.333 -11.999 101 -35.999 101c-0.666992 0 -4.66699 -2 -12 -6c-6 -3.33301 -15.333 -7.33301 -28 -12c-12 -4 -23.333 -6 -34 -6c-13.333 0 -26 2 -38 6c0.666992 -4.66699 1 -10.667 1 -18c0 -27.333 -7.66699 -52 -23 -74c30.667 -0.666992 56 -12.667 76 -36h38
c15.333 0 28.666 3.66699 39.999 11c10.667 8.66699 16 20 16 34zM511.996 401.999c0 20.667 -7.00098 38 -21.001 52c-15.333 14 -32.666 21 -51.999 21c-20.667 0 -38 -7 -52 -21s-21 -31.333 -21 -52c0 -20 7 -37 21 -51c14 -14.667 31.333 -22 52 -22
c20 0 37.333 7.33301 52 22c14 14 21 31 21 51z" />
    <glyph glyph-name="uE614" unicode="&#xe614;" horiz-adv-x="439" 
d="M389 68c0 -4.66699 -1.66602 -8.66602 -4.99902 -11.999c-2.66699 -3.33301 -6.66699 -5 -12 -5h-306c-5.33301 0 -9.33301 1.66699 -12 5c-3.33301 3.33301 -5 7.33301 -5 12v185h40c-4 -12 -6 -24.333 -6 -37c0 -36 13.333 -67.333 40 -94
c27.333 -26 59.666 -39 96.999 -39c24 0 46.667 6 68 18s38 28 50 48c12 20.667 18 43 18 67c0 11.333 -1.66699 23.666 -5 36.999h38v-185zM308.001 220.001c0 -22.667 -8.66504 -42.668 -25.998 -60.001c-16.667 -16.667 -37.334 -25 -62.001 -25
s-45.334 8.33301 -62.001 25c-17.333 16.667 -26 36.667 -26 60c0 24 8.66699 44.333 26 61c18 16.667 38.667 25 62 25s44 -8.33301 62 -25c17.333 -17.333 26 -37.666 26 -60.999zM389.003 323c0 -5.33301 -2 -10 -6 -14c-3.33301 -4 -8 -6 -14 -6h-49
c-5.33301 0 -10 2 -14 6s-6 8.66699 -6 14v47c0 5.33301 2 10 6 14s8.66699 6 14 6h49c6 0 10.667 -2 14 -6c4 -4 6 -8.66699 6 -14v-47zM439.003 383c0 14.667 -5.66699 27.667 -17 39s-24.333 17 -39 17h-327c-14.667 0 -27.667 -5.66699 -39 -17s-17 -24.333 -17 -39
v-327c0 -14.667 5.66699 -27.667 17 -39s24.333 -17 39 -17h327c14.667 0 27.667 5.66699 39 17s17 24.333 17 39v327z" />
    <glyph glyph-name="uE615" unicode="&#xe615;" horiz-adv-x="439" 
d="M321 73c-16 -7.33301 -28.668 -11.999 -38.001 -13.999c-10.667 -2.66699 -23 -4 -37 -4c-14.667 0 -28 2 -40 6c-10.667 2.66699 -20.667 8 -30 16c-8.66699 7.33301 -14.334 14.666 -17.001 21.999c-3.33301 8.66699 -5 20.334 -5 35.001v115h-36v47
c13.333 4 24.333 10 33 18c10.667 9.33301 18 18.666 22 27.999c6 10.667 10 24.667 12 42h47v-83h78v-52h-78v-84c0 -18.667 1 -31 3 -37c2.66699 -6 6.33398 -10.333 11.001 -13c6.66699 -4 15 -6 25 -6c16.667 0 33.334 5.33301 50.001 16v-52zM438.999 357.001
c0 22.667 -8 42 -24 58s-35.333 24 -58 24h-275c-22.667 0 -42 -8 -58 -24s-24 -35.333 -24 -58v-275c0 -22.667 8 -42 24 -58s35.333 -24 58 -24h275c22.667 0 42 8 58 24s24 35.333 24 58v275z" />
    <glyph glyph-name="uE616" unicode="&#xe616;" horiz-adv-x="293" 
d="M111 439c-2 -19.333 -7.00195 -38 -15.002 -56c-6 -13.333 -15.667 -26 -29 -38c-14 -10.667 -29 -18.667 -45 -24v-62h49v-154c0 -20.667 2 -36 6 -46c4 -9.33301 11.667 -19.333 23 -30c12.667 -10.667 25.667 -17.667 39 -21c17.333 -5.33301 35 -8 53 -8
c16.667 0 33.334 1.66699 50.001 5c16 4.66699 33 11 51 19v69c-23.333 -14.667 -45.666 -22 -66.999 -22c-13.333 0 -24.333 3 -33 9c-8 5.33301 -13 11 -15 17c-2.66699 6 -4 22.667 -4 50v112h104v69h-104v111h-63z" />
    <glyph glyph-name="uE617" unicode="&#xe617;" horiz-adv-x="439" 
d="M146 110c0 -10.667 -3.33301 -19.334 -10 -26.001c-8.66699 -7.33301 -17.334 -11 -26.001 -11c-10 0 -18.667 3.66699 -26 11s-11 16 -11 26c0 8.66699 3.66699 17.334 11 26.001c6.66699 6.66699 15.334 10 26.001 10c10 0 18.667 -3.33301 26 -10
c6.66699 -7.33301 10 -16 10 -26zM247 83c0 -2.66699 -1.00098 -4.99902 -3.00098 -6.99902s-4.33301 -3 -7 -3h-36c-3.33301 0 -5.33301 1 -6 3c-2 1.33301 -3 3.33301 -3 6c-2 28.667 -13.667 53.667 -35 75s-46.333 33 -75 35c-2.66699 0 -4.66699 1 -6 3
c-2 0.666992 -3 2.66699 -3 6v36c0 2.66699 1 5 3 7s4.33301 3 7 3c44.667 -3.33301 82.334 -20.333 113.001 -51s47.667 -68.334 51 -113.001zM355.999 83.001c0.666992 -2.66699 0.00292969 -5.00195 -1.99707 -7.00195s-4.33301 -3 -7 -3h-36c-2.66699 0 -5 1 -7 3l-3 6
c-0.666992 38 -11 74 -31 108c-20 33.333 -46.667 60 -80 80c-34 20 -70 30.333 -108 31l-6 3c-2 2 -3 4.33301 -3 7v36c0 2.66699 1 5 3 7c1.33301 1.33301 3.66602 2 6.99902 2c29.333 -1.33301 57.666 -6.66602 84.999 -15.999c26 -8.66699 50.667 -22 74 -40
c22.667 -16 42 -35.333 58 -58c18 -23.333 31.333 -48 40 -74c9.33301 -27.333 14.666 -55.666 15.999 -84.999zM439.002 356.999c0 22.667 -8 42 -24 58s-35.333 24 -58 24h-275c-22.667 0 -42 -8 -58 -24s-24 -35.333 -24 -58v-275c0 -22.667 8 -42 24 -58
s35.333 -24 58 -24h275c22.667 0 42 8 58 24s24 35.333 24 58v275z" />
    <glyph glyph-name="uE618" unicode="&#xe618;" 
d="M475 46c0 -3.33301 -0.668945 -5.66602 -2.00195 -6.99902s-3.66602 -2 -6.99902 -2h-420c-3.33301 0 -5.66602 0.666992 -6.99902 2s-2 3.66602 -2 6.99902v219c6 -6.66699 12.333 -13 19 -19c55.333 -42 96 -74 122 -96c15.333 -12 23.333 -18.333 24 -19
c6.66699 -5.33301 14.667 -10 24 -14c10 -4.66699 20 -7 30 -7s20 2.33301 30 7c9.33301 4 17.333 8.66699 24 14c1.33301 0.666992 9.33301 7 24 19c26 22 66.667 54 122 96c6.66699 6 13 12.333 19 19v-219zM474.998 346c0 -12 -4.33496 -24.668 -13.002 -38.001
c-10 -14 -19.667 -25 -29 -33l-59.5 -47l-54.5 -43l-1 -1c-1.33301 -1.33301 -2.83301 -2.66602 -4.5 -3.99902s-3.16699 -2.66602 -4.5 -3.99902c-2 -1.33301 -4.5 -3.16602 -7.5 -5.49902s-4.83301 -3.83301 -5.5 -4.5c-5.33301 -4 -9.66602 -7 -12.999 -9
c-2 -2 -6.66699 -4.66699 -14 -8c-4.66699 -2 -9 -3 -13 -3c-3.33301 0 -7.66602 1 -12.999 3c-7.33301 3.33301 -12 6 -14 8c-3.33301 2 -7.66602 5 -12.999 9c-0.666992 0.666992 -2.5 2.16699 -5.5 4.5s-5.5 4.16602 -7.5 5.49902c-0.666992 0.666992 -4 3.66699 -10 9
l-54.5 43l-59.5 47c-28 23.333 -42 50.666 -42 81.999c0 2.66699 0.666992 4.66699 2 6c2 2 4.33301 3 7 3h420c1.33301 -0.666992 2.66602 -1 3.99902 -1s2.33301 -0.666992 3 -2l1 -3c0.666992 0 1 -1 1 -3v-4v-7zM511.996 356.999c0 12.667 -4.33301 23.334 -13 32.001
s-19.667 13 -33 13h-420c-13.333 0 -24.333 -4.33301 -33 -13s-13 -19.334 -13 -32.001v-311c0 -13.333 4.33301 -24.333 13 -33s19.667 -13 33 -13h420c13.333 0 24.333 4.33301 33 13s13 19.667 13 33v311z" />
    <glyph glyph-name="uE619" unicode="&#xe619;" 
d="M512 273c-7.33301 -8.66699 -16.998 -17 -28.998 -25c-84.667 -58.667 -132 -91.667 -142 -99c-16.667 -12 -25.334 -18.333 -26.001 -19c-10 -6 -19 -10.333 -27 -13c-11.333 -4.66699 -22 -7 -32 -7s-20.667 2.33301 -32 7c-8 2.66699 -17 7 -27 13
c-0.666992 0.666992 -9.33398 7 -26.001 19c-30.667 22.667 -78 55.667 -142 99c-12 8 -21.667 16.333 -29 25v-227c-0 -13.333 4.33301 -24.333 13 -33s19.667 -13 33 -13h420c13.333 -0 24.333 4.33301 33 13s13 19.667 13 33v227zM512.002 357
c0 12 -4.66699 22.6641 -14 31.9971c-8.66699 8.66699 -19.334 13 -32.001 13h-420c-14.667 0 -26 -5 -34 -15c-8 -8.66699 -12 -21 -12 -37c0 -12.667 5.33301 -25.667 16 -39c10 -14 21 -25 33 -33l10 -7l21 -14.5l28 -18.5l42 -29.5
c16.667 -11.667 27.667 -19.5 33 -23.5l12 -8c2 -1.33301 3.83301 -2.66602 5.5 -3.99902s3.5 -2.66602 5.5 -3.99902s3.33301 -2.33301 4 -3c4 -2.66699 9 -5.66699 15 -9c4 -2.66699 9.33301 -5.33398 16 -8.00098c6 -2 11 -3 15 -3s9 1 15 3
c6.66699 2.66699 12 5.33398 16 8.00098c6 3.33301 11 6.33301 15 9l6 4l9 7l12 8c10.667 8 55.334 39 134.001 93c14 10 25.667 21.667 35 35c9.33301 14.667 14 29.334 14 44.001z" />
    <glyph glyph-name="uE61A" unicode="&#xe61a;" horiz-adv-x="549" 
d="M549 146c0 26 -8.00098 48.998 -24.001 68.998c-15.333 18.667 -35.666 31.334 -60.999 38.001c7.33301 11.333 11 24.666 11 39.999c0 20 -7 37 -21 51c-14 14.667 -31.333 22 -52 22c-18.667 0 -34.334 -6 -47.001 -18c-11.333 26.667 -29.333 48.667 -54 66
c-24.667 16.667 -52 25 -82 25c-40 0 -74.333 -14.333 -103 -43s-43 -63 -43 -103c0 -4.66699 0.333008 -9 1 -13c-21.333 -10 -39.333 -25.333 -54 -46c-13.333 -21.333 -20 -44.333 -20 -69c0 -35.333 12.667 -65.666 38 -90.999c24.667 -24.667 54.667 -37 90 -37h311
c30.667 0 56.334 10.667 77.001 32c22 20.667 33 46.334 33 77.001z" />
    <glyph glyph-name="uE61B" unicode="&#xe61b;" horiz-adv-x="549" 
d="M366 210c0 -1.33301 -1.00195 -3.66699 -3.00195 -7l-100 -100c-1.33301 -1.33301 -3.66602 -2 -6.99902 -2s-5.66602 0.666992 -6.99902 2l-100 101c-2 1.33301 -3 3.33301 -3 6s1 5 3 7c1.33301 1.33301 3.33301 2 6 2h64v101c0 2.66699 1 4.66699 3 6
c2 2 4.33301 3 7 3h54c2.66699 0 5 -1 7 -3c2 -1.33301 3 -3.33301 3 -6v-101h64c2.66699 0 4.66699 -0.666992 6 -2c2 -2 3 -4.33301 3 -7zM548.998 145.999c0 26.667 -8 49.332 -24 67.999c-16 20 -36.333 33 -61 39c7.33301 11.333 11 24.666 11 39.999
c0 20 -7 37 -21 51c-14 14.667 -31.333 22 -52 22c-18.667 0 -34.334 -6 -47.001 -18c-11.333 26.667 -29.333 48.667 -54 66c-24.667 16.667 -52 25 -82 25c-40 0 -74.333 -14.333 -103 -43s-43 -63 -43 -103c0 -4.66699 0.333008 -9 1 -13
c-22.667 -10 -40.667 -25.667 -54 -47s-20 -44 -20 -68c0 -35.333 12.667 -65.666 38 -90.999c24.667 -24.667 54.667 -37 90 -37h311c30.667 0 56.334 10.667 77.001 32c22 20.667 33 46.334 33 77.001z" />
    <glyph glyph-name="uE61C" unicode="&#xe61c;" horiz-adv-x="549" 
d="M366 229c0 -2.66699 -1 -5 -3 -7s-4 -3 -6 -3h-64v-100c0 -2.66699 -1 -5 -3 -7c-2.66699 -1.33301 -5 -2 -7 -2h-54c-2 0 -4.33301 0.666992 -7 2c-2 2 -3 4.33301 -3 7v100h-64c-2 0 -4 1 -6 3s-3 4.33301 -3 7c0 2 1 4 3 6l100 101c2.66699 1.33301 5 2 7 2
s4.33301 -0.666992 7 -2l100 -101c2 -2 3 -4 3 -6zM549 146c0 26.667 -8 49.332 -24 67.999c-16 20 -36.333 33 -61 39c7.33301 11.333 11 24.666 11 39.999c0 20 -7 37 -21 51c-14 14.667 -31.333 22 -52 22c-18.667 0 -34.334 -6 -47.001 -18
c-11.333 26.667 -29.333 48.667 -54 66c-24.667 16.667 -52 25 -82 25c-40 0 -74.333 -14.333 -103 -43s-43 -63 -43 -103c0 -4.66699 0.333008 -9 1 -13c-22.667 -10 -40.667 -25.667 -54 -47s-20 -44 -20 -68c0 -35.333 12.667 -65.666 38 -90.999
c24.667 -24.667 54.667 -37 90 -37h311c30.667 0 56.334 10.667 77.001 32c22 20.667 33 46.334 33 77.001z" />
    <glyph glyph-name="uE61D" unicode="&#xe61d;" horiz-adv-x="403" 
d="M401 80c0 26 -9.33496 48.332 -28.002 66.999l-166 166c-12 12 -26.333 18 -43 18c-14.667 0 -28 -5.33301 -40 -16c-10.667 -10.667 -16 -24 -16 -40c0 -16.667 6 -31 18 -43l117 -117c2 -2 4 -3 6 -3c3.33301 0 8 3 14 9s9 10.667 9 14c0 2 -1 4 -3 6l-117 117
c-4.66699 4.66699 -7 10.334 -7 17.001c0 6 1.66699 10.667 5 14c4.66699 3.33301 9.33398 5 14.001 5c6.66699 0 12.334 -2.33301 17.001 -7l166 -166c12 -12 18 -25.667 18 -41c0 -12.667 -4 -23 -12 -31s-18 -12 -30 -12c-16 0 -30 6 -42 18l-222 222
c-14 15.333 -21 32.666 -21 51.999c0 20.667 7 38 21 52c12.667 14 29.667 21 51 21c19.333 0 36.333 -7.33301 51 -22l174 -173c0.666992 -2 2.66699 -3 6 -3s7.66602 3 12.999 9c6 6 9 10.333 9 13c0 2 -1 4 -3 6l-173 173c-20.667 22 -46.667 33 -78 33
c-29.333 0 -54.666 -10.667 -75.999 -32s-32 -47 -32 -77c0 -29.333 10.667 -55.333 32 -78l222 -221c19.333 -19.333 42 -29 68 -29c22 0 40.667 7.66699 56 23c14.667 14.667 22 33.334 22 56.001z" />
    <glyph glyph-name="uE61E" unicode="&#xe61e;" horiz-adv-x="476" 
d="M293 247c0 2 -1 4 -3 6s-4.33301 3 -7 3h-64v64c0 3.33301 -0.666992 5.33301 -2 6c-2 2 -4.33301 3 -7 3h-18c-2.66699 0 -4.66699 -1 -6 -3c-2 -1.33301 -3 -3.33301 -3 -6v-64h-64c-2.66699 0 -5 -1 -7 -3c-1.33301 -2.66699 -2 -4.66699 -2 -6v-18
c0 -2 0.666992 -4.33301 2 -7c2 -2 4.33301 -3 7 -3h64v-64c0 -2 1 -4 3 -6c1.33301 -2 3.33301 -3 6 -3h18c2.66699 0 5 1 7 3c1.33301 1.33301 2 3.33301 2 6v64h64c2.66699 0 5 1 7 3s3 4.33301 3 7v18zM329 238c0 -36 -12.332 -66.332 -36.999 -90.999s-55 -37 -91 -37
c-35.333 0 -65.333 12.333 -90 37c-25.333 25.333 -38 55.666 -38 90.999c0 34.667 12.667 64.667 38 90s55.333 38 90 38c35.333 0 65.666 -12.667 90.999 -38c24.667 -24.667 37 -54.667 37 -90zM475.001 0.000976562c0 10.667 -3.33398 19.333 -10.001 26l-98 98
c23.333 34.667 35 72.667 35 114c0 28 -5.33301 54 -16 78c-10 24.667 -24 46 -42 64c-17.333 17.333 -39 31.666 -65 42.999c-24 10.667 -50 16 -78 16s-54 -5.33301 -78 -16c-24.667 -10.667 -46 -25 -64 -43c-19.333 -19.333 -33.666 -40.666 -42.999 -63.999
c-10.667 -24 -16 -50 -16 -78c0 -28.667 5.33301 -54.667 16 -78c10 -24.667 24.333 -46.334 43 -65.001c18 -18 39.333 -32.333 64 -43c24.667 -10 50.667 -15 78 -15c42.667 0 80.667 11.667 114 35l98 -98c7.33301 -7.33301 16 -11 26 -11s18.667 3.66699 26 11
c6.66699 6.66699 10 15.334 10 26.001z" />
    <glyph glyph-name="uE61F" unicode="&#xe61f;" horiz-adv-x="476" 
d="M293 247c0 2 -1 4 -3 6s-4.33301 3 -7 3h-164c-2.66699 0 -5 -1 -7 -3c-1.33301 -2.66699 -2 -4.66699 -2 -6v-18c0 -2 0.666992 -4.33301 2 -7c2 -2 4.33301 -3 7 -3h164c2.66699 0 5 1 7 3s3 4.33301 3 7v18zM329 238c0 -36 -12.332 -66.332 -36.999 -90.999
s-55 -37 -91 -37c-35.333 0 -65.333 12.333 -90 37c-25.333 25.333 -38 55.666 -38 90.999c0 34.667 12.667 64.667 38 90s55.333 38 90 38c35.333 0 65.666 -12.667 90.999 -38c24.667 -24.667 37 -54.667 37 -90zM475.001 0.000976562
c0 10.667 -3.33398 19.333 -10.001 26l-98 98c23.333 34.667 35 72.667 35 114c0 28 -5.33301 54 -16 78c-10 24.667 -24 46 -42 64c-17.333 17.333 -39 31.666 -65 42.999c-24 10.667 -50 16 -78 16s-54 -5.33301 -78 -16c-24.667 -10.667 -46 -25 -64 -43
c-19.333 -19.333 -33.666 -40.666 -42.999 -63.999c-10.667 -24 -16 -50 -16 -78c0 -28.667 5.33301 -54.667 16 -78c10 -24.667 24.333 -46.334 43 -65.001c18 -18 39.333 -32.333 64 -43c24.667 -10 50.667 -15 78 -15c42.667 0 80.667 11.667 114 35l98 -98
c7.33301 -7.33301 16 -11 26 -11s18.667 3.66699 26 11c6.66699 6.66699 10 15.334 10 26.001z" />
    <glyph glyph-name="uE620" unicode="&#xe620;" horiz-adv-x="439" 
d="M292 201l-27 -55h-91l-27 55h-91c0 0.666992 0.166992 1 0.5 1s0.5 0.333008 0.5 1s0.333008 1.33398 1 2.00098v1l60 141h203l60 -141l1 -1v-2c0 -0.666992 0.333008 -1.33398 1 -2.00098h-91zM439 193c0 9.33301 -2.33203 21 -6.99902 35l-68 157
c-2 4.66699 -5.66699 8.66699 -11 12c-4 3.33301 -9 5 -15 5h-237c-6 0 -11 -1.66699 -15 -5c-5.33301 -3.33301 -9 -7.33301 -11 -12l-68 -157c-4.66699 -11.333 -7 -23 -7 -35v-138c0 -4 1.66699 -8.33301 5 -13c3.33301 -3.33301 7.66602 -5 12.999 -5h403
c5.33301 0 9.33301 1.66699 12 5c4 4 6 8.33301 6 13v138z" />
    <glyph glyph-name="uE621" unicode="&#xe621;" horiz-adv-x="439" 
d="M128 347c0 -9.33301 -3.66504 -17.668 -10.998 -25.001c-6.66699 -7.33301 -15.334 -11 -26.001 -11c-10 0 -18.333 3.66699 -25 11c-7.33301 6.66699 -11 15 -11 25c0 10.667 3.66699 19.334 11 26.001c7.33301 7.33301 15.666 11 24.999 11
c10 0 18.667 -3.66699 26 -11s11 -16 11 -26zM433.002 182.998c0 8.66699 -3.66602 17.334 -10.999 26.001l-204 204c-6.66699 6.66699 -16.334 12.667 -29.001 18s-24 8 -34 8h-118c-10 0 -18.667 -3.66699 -26 -11s-11 -16 -11 -26v-119c0 -9.33301 2.66699 -20.333 8 -33
s11.333 -22.334 18 -29.001l204 -204c7.33301 -7.33301 16 -11 26 -11s18.667 3.66699 26 11l140 140c7.33301 7.33301 11 16 11 26z" />
    <glyph glyph-name="uE622" unicode="&#xe622;" horiz-adv-x="549" 
d="M128 347c0 -9.33301 -3.66504 -17.668 -10.998 -25.001c-6.66699 -7.33301 -15.334 -11 -26.001 -11c-10 0 -18.333 3.66699 -25 11c-7.33301 6.66699 -11 15 -11 25c0 10.667 3.66699 19.334 11 26.001c7.33301 7.33301 15.666 11 24.999 11
c10 0 18.667 -3.66699 26 -11s11 -16 11 -26zM433.002 182.998c0 8.66699 -3.66602 17.334 -10.999 26.001l-204 204c-6.66699 6.66699 -16.334 12.667 -29.001 18s-24 8 -34 8h-118c-10 0 -18.667 -3.66699 -26 -11s-11 -16 -11 -26v-119c0 -9.33301 2.66699 -20.333 8 -33
s11.333 -22.334 18 -29.001l204 -204c7.33301 -7.33301 16 -11 26 -11s18.667 3.66699 26 11l140 140c7.33301 7.33301 11 16 11 26zM543.003 182.998c0 8.66699 -3.66797 17.333 -11.001 26l-204 204c-8.66699 7.33301 -18.334 13.333 -29.001 18
c-14 5.33301 -25.333 8 -34 8h-64c8.66699 0 20 -2.66699 34 -8c10.667 -4.66699 20.334 -10.667 29.001 -18l204 -204c7.33301 -8.66699 11 -17.334 11 -26.001c0 -10 -3.66699 -18.667 -11 -26l-134 -134c4.66699 -5.33301 9.66699 -9.66602 15 -12.999
c3.33301 -2.66699 9 -4 17 -4c8.66699 0 17.334 3.66699 26.001 11l140 140c7.33301 7.33301 11 16 11 26z" />
    <glyph glyph-name="uE623" unicode="&#xe623;" 
d="M512 219c0 34 -11.3359 64.6719 -34.0029 92.0049c-24 29.333 -55 51.666 -93 66.999c-40 16 -83 24 -129 24c-34 0 -67 -4.66699 -99 -14c-31.333 -10 -58.666 -23 -81.999 -39c-23.333 -17.333 -41.666 -37 -54.999 -59c-13.333 -22.667 -20 -46.334 -20 -71.001
c0 -28 8.66699 -54.667 26 -80c16.667 -24.667 40.334 -45.667 71.001 -63l-3.5 -10.5c-1.66699 -5 -3.16699 -8.5 -4.5 -10.5c-4 -10 -6.66699 -15.667 -8 -17c-2 -5.33301 -5 -10.333 -9 -15c-5.33301 -6.66699 -8.33301 -10.334 -9 -11.001s-2 -2.16699 -4 -4.5
s-4 -4.5 -6 -6.5c-0.666992 -1.33301 -1.5 -2.5 -2.5 -3.5l-2.5 -2.5l-2 -2c-0.666992 -0.666992 -1 -1.33398 -1 -2.00098c-0.666992 0 -1 -0.333008 -1 -1c-0.666992 0 -1.33398 -0.333008 -2.00098 -1l-2 -3l-1 -2l-2 -3v-3c-0.666992 -2 -0.666992 -3 0 -3v-1
c1.33301 -4 3 -6.66699 5 -8c2 -2 5 -3 9 -3c14.667 2.66699 25.334 5 32.001 7c48.667 11.333 92.667 34.333 132 69c9.33301 -1.33301 23 -2 41 -2c46 0 89 8 129 24c39.333 16 70.333 38.333 93 67c22.667 27.333 34 57.666 34 90.999z" />
    <glyph glyph-name="uE624" unicode="&#xe624;" horiz-adv-x="439" 
d="M366 135c0 -10 -2.33398 -19.6699 -7.00098 -29.0029c-4 -9.33301 -13 -17 -27 -23c-13.333 -6.66699 -25.666 -10 -36.999 -10c-4 0 -7.33301 0.333008 -10 1c-1.33301 0 -2.83301 0.166992 -4.5 0.5s-2.83398 0.5 -3.50098 0.5c-4 1.33301 -7.33301 2.33301 -10 3
s-5.33398 1.66699 -8.00098 3c-0.666992 0 -2 0.333008 -4 1l-6 2c-4 2 -6.66699 3 -8 3c-32.667 12.667 -63.334 33.334 -92.001 62.001s-49.334 59.334 -62.001 92.001c0 1.33301 -1 4 -3 8l-2 6c-0.666992 2 -1 3.33301 -1 4
c-1.33301 2.66699 -2.33301 5.33398 -3 8.00098s-1.66699 6 -3 10c0 0.666992 -0.166992 1.83398 -0.5 3.50098s-0.5 3.16699 -0.5 4.5c-0.666992 2.66699 -1 6 -1 10c0 11.333 3.33301 23.666 10 36.999c6 14 13.667 23 23 27c9.33301 4.66699 19 7 29 7
c2 0 3.33301 -0.333008 4 -1c1.33301 0 3 -1.66699 5 -5c0.666992 -1.33301 1.83398 -3.33301 3.50098 -6s2.83398 -4.66699 3.50098 -6s2 -3.5 4 -6.5s3.33301 -5.16699 4 -6.5c2 -5.33301 4.33301 -9.66602 7 -12.999c0.666992 -0.666992 1.33398 -1.66699 2.00098 -3
s1.33398 -2.33301 2.00098 -3v-2l4 -6c0.666992 -0.666992 2 -3 4 -7c0.666992 -1.33301 1 -3.33301 1 -6c0 -2 -1.66699 -5.33301 -5 -10c-1.33301 -1.33301 -3.5 -3.33301 -6.5 -6s-5.16699 -4.66699 -6.5 -6c-3.33301 -2 -7.66602 -5.66699 -12.999 -11
c-4 -2.66699 -6 -5.66699 -6 -9c0 -2 0.333008 -3.66699 1 -5l2 -4c0 -1.33301 1 -3 3 -5l2 -4c8 -16 20 -32.333 36 -49c16.667 -16 33 -28 49 -36l4 -2c2 -2 3.66699 -3 5 -3l4 -2c1.33301 -0.666992 3 -1 5 -1c3.33301 0 7.33301 3 12 9
c8 9.33301 13.667 15.666 17 18.999c5.33301 6 9.66602 9 12.999 9c2.66699 0 4.66699 -0.333008 6 -1c4 -2 6.33301 -3.33301 7 -4l6 -4l15 -8c4 -2 8.83301 -4.66699 14.5 -8s9.16699 -5.33301 10.5 -6c7.33301 -5.33301 11 -8.33301 11 -9c0.666992 -0.666992 1 -2 1 -4z
M438.999 356.997c0 22.667 -8 42 -24 58s-35.333 24 -58 24h-275c-22.667 0 -42 -8 -58 -24s-24 -35.333 -24 -58v-275c0 -22.667 8 -42 24 -58s35.333 -24 58 -24h275c22.667 0 42 8 58 24s24 35.333 24 58v275z" />
    <glyph glyph-name="uE625" unicode="&#xe625;" 
d="M485 366l-119 -0.000976562c-12 0 -24.333 -4 -37 -12v94c0 7.33301 -2.66699 13.666 -8 18.999c-4.66699 5.33301 -11 8 -19 8h-119c-9.33301 0 -17.666 -1.66699 -24.999 -5c-9.33301 -4 -16.666 -8.66699 -21.999 -14l-117 -117c-4.66699 -4.66699 -9 -11.667 -13 -21
s-6 -17.666 -6 -24.999v-192c0 -8 2.66699 -14.667 8 -20s11.666 -8 18.999 -8h156v-82c0 -6.66699 2.66699 -13.334 8 -20.001c5.33301 -5.33301 11.666 -8 18.999 -8h275c7.33301 0 13.666 2.66699 18.999 8c5.33301 6.66699 8 13.334 8 20.001v347
c0 6.66699 -2.66699 13.334 -8 20.001c-5.33301 5.33301 -11.666 8 -18.999 8zM329 304.999v-86h-85zM146 414.999v-86h-85zM202 229.999c-6 -7.33301 -10.334 -14.667 -13.001 -22c-4 -9.33301 -6 -17.666 -6 -24.999v-73h-146v183h118c8.66699 0 15.334 2.66699 20.001 8
c5.33301 5.33301 8 11.666 8 18.999v119h110v-119zM474.999 -0.00195312l-256.001 0.000976562v183h119c6.66699 0 13.334 2.66699 20.001 8c5.33301 5.33301 8 11.666 8 18.999v119h109v-329z" />
    <glyph glyph-name="uE626" unicode="&#xe626;" 
d="M256 366c38 0 74.332 -6.66699 108.999 -20c34 -13.333 61 -31.333 81 -54c19.333 -22.667 29 -47 29 -73c0 -25.333 -9.66699 -49.333 -29 -72c-20 -23.333 -47 -41.333 -81 -54c-34.667 -13.333 -71 -20 -109 -20c-7.33301 0 -19.666 0.666992 -36.999 2l-16 2l-13 -11
c-24.667 -21.333 -50.667 -37.666 -78 -48.999c9.33301 18 16 34.667 20 50l7 27l-24 14c-24 13.333 -43.333 30 -58 50c-13.333 19.333 -20 39.666 -20 60.999c0 26 9.66699 50.333 29 73c20 22.667 47 40.667 81 54c34.667 13.333 71 20 109 20zM511.999 219
c0 34 -11.333 64.6699 -34 92.0029c-24 29.333 -55 51.666 -93 66.999c-40 16 -83 24 -129 24s-89 -8 -129 -24c-38 -15.333 -69 -37.666 -93 -66.999c-22.667 -27.333 -34 -58 -34 -92c0 -28 8.66699 -54.667 26 -80c16.667 -24.667 40.334 -45.667 71.001 -63l-3.5 -10.5
c-1.66699 -5 -3.16699 -8.5 -4.5 -10.5c-4 -10 -6.66699 -15.667 -8 -17c-2 -5.33301 -5 -10.333 -9 -15c-5.33301 -6.66699 -8.33301 -10.334 -9 -11.001s-2 -2.16699 -4 -4.5s-4 -4.5 -6 -6.5c-0.666992 -1.33301 -1.5 -2.5 -2.5 -3.5l-2.5 -2.5l-2 -2
c-0.666992 -0.666992 -1 -1.33398 -1 -2.00098c-0.666992 0 -1 -0.333008 -1 -1c-0.666992 0 -1.33398 -0.333008 -2.00098 -1l-2 -3l-1 -2l-2 -3v-3c-0.666992 -2 -0.666992 -3 0 -3v-1c1.33301 -4 2.66602 -6.66699 3.99902 -8c3.33301 -2 6 -3 8 -3h2
c14.667 2.66699 25.334 5 32.001 7c48.667 11.333 92.667 34.333 132 69c9.33301 -1.33301 23 -2 41 -2c46 0 89 8 129 24c39.333 16 70.333 38.333 93 67c22.667 27.333 34 57.666 34 90.999z" />
    <glyph glyph-name="uE627" unicode="&#xe627;" horiz-adv-x="329" 
d="M329 274c0 5.33301 -1.66699 9.66602 -5 12.999c-4 4 -8.33301 6 -13 6s-9 -2 -13 -6c-3.33301 -2.66699 -5 -7 -5 -13v-36c0 -35.333 -12.667 -65.666 -38 -90.999c-24.667 -24.667 -54.667 -37 -90 -37c-36 0 -66.333 12.333 -91 37s-37 55 -37 91v36
c0 5.33301 -2 9.66602 -6 12.999c-2.66699 4 -7 6 -13 6c-4.66699 0 -9 -2 -13 -6c-3.33301 -3.33301 -5 -7.66602 -5 -12.999v-36c0 -42.667 14 -79.334 42 -110.001s62.667 -48.667 104 -54v-37h-73c-4.66699 0 -9 -2 -13 -6c-3.33301 -3.33301 -5 -7.66602 -5 -12.999
c0 -4 1.66699 -8.33301 5 -13c4.66699 -3.33301 9 -5 13 -5h183c4 0 8.33301 1.66699 13 5c3.33301 4.66699 5 9 5 13c0 5.33301 -1.66699 9.66602 -5 12.999c-4 4 -8.33301 6 -13 6h-73v37c41.333 5.33301 76 23.333 104 54s42 67.334 42 110.001v36zM256 384
c0 25.333 -8.99902 47 -26.999 65c-18.667 17.333 -40 26 -64 26c-24.667 0 -46.334 -8.66699 -65.001 -26c-18 -18 -27 -39.667 -27 -65v-146c0 -25.333 9 -47 27 -65s39.667 -27 65 -27c24.667 0 46 9 64 27s27 39.667 27 65v146z" />
    <glyph glyph-name="uE628" unicode="&#xe628;" horiz-adv-x="403" 
d="M77 205c-2.66699 16 -4 27 -4 33v36c0 5.33301 -1.66699 9.66602 -5 12.999c-4 4 -8.33301 6 -13 6s-9 -2 -13 -6c-3.33301 -2.66699 -5 -7 -5 -13v-36c0 -21.333 4 -41.666 12 -60.999zM396 377c2 2 3 4.33203 3 6.99902s-1 5 -3 7l-24 23c-2 2 -4 3 -6 3
c-2.66699 0 -5 -1 -7 -3l-352 -353c-2 -0.666992 -3 -2.66699 -3 -6c0 -2.66699 1 -5 3 -7l23 -23c2 -2 4.33301 -3 7 -3c2 0 4 1 6 3l73 72c20 -12 42.333 -19.667 67 -23v-37h-73c-5.33301 0 -9.66602 -2 -12.999 -6c-4 -2.66699 -6 -7 -6 -13c0 -4.66699 2 -9 6 -13
c3.33301 -3.33301 7.66602 -5 12.999 -5h183c4.66699 0 8.66699 1.66699 12 5c4 4 6 8.33301 6 13c0 6 -2 10.333 -6 13c-3.33301 4 -7.33301 6 -12 6h-74v37c40.667 4.66699 75.667 22.667 105 54c28 30.667 42 67.334 42 110.001v36c0 5.33301 -2 9.66602 -6 12.999
c-2.66699 4 -7 6 -13 6c-4.66699 0 -8.66699 -2 -12 -6c-4 -3.33301 -6 -7.66602 -6 -12.999v-36c0 -36 -12.333 -66.333 -37 -91s-55 -37 -91 -37c-20 0 -39.333 4.66699 -58 14l27 28c10 -4 20.333 -6 31 -6c25.333 0 47 9 65 27s27 39.667 27 65v36zM287 414.999
c-6 17.333 -17.001 32 -33.001 44c-15.333 10.667 -33 16 -53 16c-25.333 0 -46.666 -8.66699 -63.999 -26c-18 -18 -27 -39.667 -27 -65v-146z" />
    <glyph glyph-name="uE629" unicode="&#xe629;" horiz-adv-x="476" 
d="M402 193c0 3.33301 -2.00195 5.99805 -6.00195 7.99805c-3.33301 2 -6.66602 1.33301 -9.99902 -2s-8.33301 -7 -15 -11c-3.33301 -1.33301 -5 -4 -5 -8v-61c0 -12 -4.66699 -22.667 -14 -32s-20 -14 -32 -14h-238c-12 0 -22.667 4.66699 -32 14
c-8.66699 8.66699 -13 19.334 -13 32.001v238c0 12.667 4.33301 23.334 13 32.001s19.334 13 32.001 13h32h2c1.33301 0.666992 2.33301 1 3 1c12 7.33301 24.667 13.333 38 18c4.66699 0.666992 7 3.66699 7 9c0 1.33301 -0.666992 3.33301 -2 6c-2 2 -4.33301 3 -7 3h-73
c-22.667 0 -42 -8 -58 -24s-24 -35.333 -24 -58v-238c0 -22.667 8 -42 24 -58s35.333 -24 58 -24h238c22.667 0 42 8 58 24s24 35.333 24 58v74zM469.998 334.998c3.33301 2.66699 4.99902 6.66895 4.99902 12.002c0 6 -1.66699 10.333 -5 13l-110 110
c-2.66699 3.33301 -7 5 -13 5c-2.66699 0 -5 -0.333008 -7 -1c-7.33301 -3.33301 -11 -9 -11 -17v-55h-46c-19.333 0 -38 -1 -56 -3c-16.667 -2 -31.667 -5 -45 -9c-10 -2 -22 -6.33301 -36 -13c-10 -6 -19 -12 -27 -18c-8.66699 -7.33301 -15 -14.333 -19 -21
c-6.66699 -8.66699 -11.334 -16.334 -14.001 -23.001c-4 -10.667 -6.66699 -19.334 -8 -26.001c-1.33301 -6 -2.66602 -14.333 -3.99902 -25c-0.666992 -5.33301 -1 -14 -1 -26c0 -10 1.66699 -21.667 5 -35c2.66699 -11.333 6.33398 -22.333 11.001 -33l14 -28
c1.33301 -2.66699 3 -5.5 5 -8.5s3.5 -5.33301 4.5 -7s1.83301 -3.16699 2.5 -4.5l6 -9c0.666992 -2 3 -3 7 -3h3c5.33301 2 7.33301 5.33301 6 10c-8 64 -1 109 21 135c22 25.333 63.667 38 125 38h46v-55c0 -8 3.66699 -13.667 11 -17c4 -1.33301 6.33301 -2 7 -2
c6 0 10.333 2 13 6z" />
    <glyph glyph-name="uE62A" unicode="&#xe62a;" horiz-adv-x="439" 
d="M432 174c0 2 -0.998047 3.99902 -2.99805 5.99902s-4 3 -6 3h-55c-4 0 -7 -2.33301 -9 -7c-8 -18.667 -13 -29.667 -15 -33c-12.667 -22 -30.334 -39 -53.001 -51c-21.333 -12.667 -45.333 -19 -72 -19c-16.667 0 -34.334 3.33301 -53.001 10
c-16.667 6.66699 -32 16.667 -46 30l39 39c4 2.66699 6 7 6 13c0 4.66699 -2 8.66699 -6 12c-3.33301 4 -7.66602 6 -12.999 6h-128c-4.66699 0 -9 -2 -13 -6c-3.33301 -3.33301 -5 -7.33301 -5 -12v-128c0 -5.33301 1.66699 -9.66602 5 -12.999c4 -4 8.33301 -6 13 -6
c6 0 10.333 2 13 6l37 37c19.333 -19.333 42.666 -34.333 69.999 -45c25.333 -10.667 52 -16 80 -16c52 0 97.667 16 137 48c38.667 30.667 64 72 76 124c0.666992 0 1 0.666992 1 2zM439.002 401.999c0 6 -2 10.332 -6 12.999c-3.33301 4 -7.33301 6 -12 6
c-6 0 -10.333 -2 -13 -6l-37 -37c-19.333 18.667 -42.666 33.667 -69.999 45c-26 10.667 -53.333 16 -82 16c-52.667 0 -98.334 -16 -137.001 -48c-38 -30 -63.667 -71.333 -77 -124v-2c0 -2 1 -4 3 -6s4 -3 6 -3h57c4 0 7 2.33301 9 7c8 19.333 13 30.333 15 33
c12.667 22 30.334 39 53.001 51c21.333 12.667 45 19 71 19c38.667 0 72 -13 100 -39l-39 -40c-4 -3.33301 -6 -7.66602 -6 -12.999c0 -4.66699 2 -9 6 -13c3.33301 -3.33301 7.66602 -5 12.999 -5h128c4.66699 0 8.66699 1.66699 12 5c4 4 6 8.33301 6 13v128z" />
    <glyph glyph-name="uE62B" unicode="&#xe62b;" horiz-adv-x="476" 
d="M329 240c0 -35.333 -12.333 -65.333 -37 -90c-25.333 -25.333 -55.666 -38 -90.999 -38c-34.667 0 -64.667 12.667 -90 38s-38 55.333 -38 90s12.667 64.667 38 90s55.333 38 90 38c35.333 0 65.666 -12.667 90.999 -38c24.667 -24.667 37 -54.667 37 -90zM475 2
c0 10.667 -3.33301 19.3291 -10 25.9961l-98 98c23.333 34.667 35 72.667 35 114c0 28 -5.33301 54 -16 78c-10 24.667 -24 46 -42 64c-18.667 18.667 -40.334 33 -65.001 43c-24 10.667 -50 16 -78 16s-54 -5.33301 -78 -16
c-23.333 -9.33301 -44.666 -23.666 -63.999 -42.999s-33.666 -40.666 -42.999 -63.999c-10.667 -24 -16 -50 -16 -78s5.33301 -54 16 -78c9.33301 -23.333 23.666 -44.666 42.999 -63.999s40.666 -33.666 63.999 -42.999c24 -10.667 50 -16 78 -16
c41.333 0 79.333 11.667 114 35l98 -97c6.66699 -7.33301 15.334 -11 26.001 -11c10 0 18.667 3.66699 26 11c6.66699 6.66699 10 15 10 25z" />
    <glyph glyph-name="uE62C" unicode="&#xe62c;" 
d="M91 402c0 10.667 -3.33301 19.334 -10 26.001c-7.33301 7.33301 -16 11 -26 11s-18.667 -3.66699 -26 -11s-11 -16 -11 -26c0 -14 6.33301 -24.333 19 -31v-362c0 -2.66699 0.666992 -4.66699 2 -6c2 -2 4.33301 -3 7 -3h18c2.66699 0 4.66699 1 6 3c2 2 3 4 3 6v362
c12 7.33301 18 17.666 18 30.999zM512 384c0 4 -1.66699 8.33008 -5 12.9971c-4.66699 3.33301 -9 5 -13 5c-2.66699 0 -8 -2 -16 -6c-10.667 -5.33301 -19 -9.66602 -25 -12.999c-11.333 -6 -21.666 -10.667 -30.999 -14c-13.333 -4 -24.666 -6 -33.999 -6
s-17.666 2 -24.999 6c-21.333 10 -42.333 18.333 -63 25c-15.333 5.33301 -34.333 8 -57 8c-35.333 0 -75.333 -11.333 -120 -34l-23 -12c-6 -5.33301 -9 -10.666 -9 -15.999v-212c0 -4.66699 2 -9 6 -13c3.33301 -3.33301 7.66602 -5 12.999 -5c2 0 5 0.666992 9 2
c52 28 96.333 42 133 42c13.333 0 26.666 -2 39.999 -6s24.333 -8.66699 33 -14c9.33301 -5.33301 19.666 -10 30.999 -14c12 -4 24 -6 36 -6c29.333 0 64.333 11 105 33c6 4 9.66699 6.66699 11 8c2.66699 2.66699 4 6.33398 4 11.001v218z" />
    <glyph glyph-name="uE62D" unicode="&#xe62d;" horiz-adv-x="329" 
d="M91 256v55c0 18.667 7.33301 36 22 52c14 14 31.333 21 52 21c20 0 37 -7 51 -21c14.667 -14.667 22 -32 22 -52v-55h-147zM329 229c0 7.33301 -2.66992 13.666 -8.00293 18.999s-11.666 8 -18.999 8h-9v55c0 34.667 -12.667 64.667 -38 90s-55.333 38 -90 38
c-35.333 0 -65.666 -12.667 -90.999 -38c-24.667 -24.667 -37 -54.667 -37 -90v-55h-10c-7.33301 0 -13.666 -2.66699 -18.999 -8s-8 -11.666 -8 -18.999v-165c0 -7.33301 2.66699 -13.666 8 -18.999c4.66699 -5.33301 11 -8 19 -8h275c8 0 14.333 2.66699 19 8
c5.33301 5.33301 8 11.666 8 18.999v165z" />
    <glyph glyph-name="uE62E" unicode="&#xe62e;" horiz-adv-x="439" 
d="M104 37h-31v36h-36v31l26 26l67 -67zM253 302c0 -2 -0.666992 -3.66699 -2 -5l-155 -155c-1.33301 -1.33301 -3 -2 -5 -2c-4 0 -6 2 -6 6c0 2 0.666992 3.66699 2 5l155 155c1.33301 1.33301 3 2 5 2c4 0 6 -2 6 -6zM238 357l-238 -238v-119h119l238 238zM433 329
c0 10 -3.66699 18.667 -11 26l-67 67c-7.33301 7.33301 -16 11 -26 11s-18.667 -3.66699 -26 -11l-47 -47l119 -119l47 47c7.33301 7.33301 11 16 11 26z" />
    <glyph glyph-name="uE62F" unicode="&#xe62f;" 
d="M512 375c0 7.33301 -3.66699 13 -11 17c-2 0.666992 -4.33301 1 -7 1c-5.33301 0 -9.66602 -1.66699 -12.999 -5l-115 -115v47c0 22.667 -8 42 -24 58c-17.333 16 -37 24 -59 24h-201c-22.667 0 -42 -8 -58 -24s-24 -35.333 -24 -58v-201c0 -22.667 8 -42 24 -58
s35.333 -24 58 -24h201c22 0 41.667 8 59 24c16 16 24 35.333 24 58v47l115 -115c3.33301 -3.33301 7.66602 -5 12.999 -5c2.66699 0 5 0.333008 7 1c7.33301 3.33301 11 9 11 17v311z" />
    <glyph glyph-name="uE630" unicode="&#xe630;" horiz-adv-x="439" 
d="M219 439c-39.333 0 -76.001 -9.99902 -110.001 -29.999c-32.667 -18.667 -59.334 -45 -80.001 -79c-19.333 -34.667 -29 -71.667 -29 -111c0 -38.667 9.66699 -75.334 29 -110.001c20 -33.333 46.667 -60 80 -80c34.667 -19.333 71.334 -29 110.001 -29
c39.333 0 76.333 9.66699 111 29c34 20.667 60.333 47.334 79 80.001c20 34 30 70.667 30 110c0 40 -10 77 -30 111c-19.333 33.333 -45.666 59.666 -78.999 78.999c-34 20 -71 30 -111 30zM255.999 83.001c0 -2.66699 -1 -5 -3 -7c-0.666992 -2 -2.66699 -3 -6 -3h-55
c-2 0 -4 1 -6 3s-3 4.33301 -3 7v54c0 3.33301 1 5.33301 3 6c2 2 4 3 6 3h55c2.66699 0 4.66699 -0.666992 6 -2c2 -2 3 -4.33301 3 -7v-54zM254.999 181.001c0 -2 -1.00098 -3.66699 -3.00098 -5c-0.666992 -1.33301 -2.66699 -2 -6 -2h-53
c-3.33301 0 -5.66602 0.666992 -6.99902 2c-2 1.33301 -3 3 -3 5l-5 177c0 2.66699 1 4.33398 3 5.00098c2 2 4.33301 3 7 3h63c2.66699 0 5 -1 7 -3c2 -0.666992 3 -2.33398 3 -5.00098z" />
    <glyph glyph-name="uE631" unicode="&#xe631;" 
d="M190 338c-30 42.667 -69 63.999 -117 63.999h-64c-2.66699 0 -4.66699 -0.666992 -6 -2c-2 -2 -3 -4.33301 -3 -7v-55c0 -2.66699 1 -4.66699 3 -6c0.666992 -2 2.66699 -3 6 -3h64c9.33301 0 17 -1.33301 23 -4c8.66699 -3.33301 14.667 -6.66602 18 -9.99902
c5.33301 -4.66699 10.333 -10 15 -16c4.66699 -7.33301 8.66699 -13.333 12 -18c0.666992 -2 2.16699 -5.33301 4.5 -10l5.5 -11c15.333 34 28.333 60 39 78zM512 109.999c0 2.66699 -0.99707 4.66699 -2.99707 6l-91 91c-2 2 -4.33301 3 -7 3
c-1.33301 0 -3.33301 -0.666992 -6 -2c-2 -2 -3 -4.33301 -3 -7v-55h-73c-6 0 -13.667 1.33301 -23 4c-3.33301 1.33301 -9.33301 4.66602 -18 9.99902c-4.66699 3.33301 -9.66699 9 -15 17c-3.33301 4 -7 10 -11 18c-4 6.66699 -7.66699 13.334 -11 20.001
c-16.667 -38.667 -29.667 -64.667 -39 -78c4.66699 -7.33301 10 -13.666 16 -18.999l16 -16c5.33301 -4.66699 11 -8.33398 17 -11.001l16 -8c4.66699 -2 10.667 -4 18 -6c7.33301 -0.666992 13.666 -1.66699 18.999 -3c1.33301 0 4.16602 -0.166992 8.49902 -0.5
s8.16602 -0.5 11.499 -0.5h21h23h24v-55c0 -2 1 -4 3 -6s4 -3 6 -3c2.66699 0 5 1 7 3l91 91c2 2 3 4.33301 3 7zM512.003 365.999c0 2.66699 -0.999023 4.66895 -2.99902 6.00195l-91 91c-2 2 -4.33301 3 -7 3c-1.33301 0 -3.33301 -0.666992 -6 -2
c-2 -2 -3 -4.33301 -3 -7v-55h-73c-14 0 -26 -1.33301 -36 -4c-10.667 -3.33301 -21 -7.33301 -31 -12c-6 -3.33301 -14.667 -10 -26 -20c-8 -8 -15 -16 -21 -24c-4.66699 -6 -10.667 -15.333 -18 -28l-15 -30c-1.33301 -3.33301 -3.66602 -8.5 -6.99902 -15.5l-8 -16.5
c-5.33301 -14 -12.666 -30.333 -21.999 -49c-2 -4.66699 -6.33301 -12 -13 -22c-2.66699 -4 -7.33398 -10 -14.001 -18c-7.33301 -6.66699 -14 -10.667 -20 -12c-8 -3.33301 -16.333 -5 -25 -5h-64c-2.66699 0 -4.66699 -0.666992 -6 -2c-2 -2 -3 -4.33301 -3 -7v-55
c0 -2.66699 1 -4.66699 3 -6c0.666992 -2 2.66699 -3 6 -3h64c11.333 0 23.666 1.66699 36.999 5c10.667 2.66699 20.667 6.66699 30 12c10.667 6 19.334 12.333 26.001 19c8 8.66699 15 16.667 21 24c7.33301 9.33301 13.333 19 18 29c6 9.33301 11.333 19.333 16 30
c1.33301 2.66699 3.5 7.5 6.5 14.5s5.5 12.5 7.5 16.5c10 23.333 17.333 39.666 22 48.999c5.33301 10 9.66602 17.333 12.999 22c4 6 9 12 15 18c4 5.33301 10.333 9.66602 19 12.999c7.33301 2.66699 15.666 4 24.999 4h73v-55c0 -2 1 -4 3 -6s4 -3 6 -3
c2.66699 0 5 1 7 3l91 91c2 2 3 4.33301 3 7z" />
    <glyph glyph-name="uE632" unicode="&#xe632;" 
d="M293 83c0 -2.66699 -1 -5 -3 -7s-4.33301 -3 -7 -3h-54c-2.66699 0 -5 1 -7 3s-3 4.33301 -3 7v54c0 2.66699 1 5 3 7c2.66699 1.33301 5 2 7 2h54c2 0 4.33301 -0.666992 7 -2c2 -2 3 -4.33301 3 -7v-54zM292 189c0 -2 -1.00098 -3.33301 -3.00098 -4
c-1.33301 -1.33301 -3.66602 -2 -6.99902 -2h-53c-3.33301 0 -5.33301 0.666992 -6 2c-2 0.666992 -3 2 -3 4l-5 131c0 2.66699 1 4.66699 3 6c2 2 4.33301 3 7 3h62c2.66699 0 5 -1 7 -3c2 -1.33301 3 -3 3 -5zM287.999 456c-2.66699 6 -7 10.667 -13 14
c-4.66699 3.33301 -11 5 -19 5s-14.333 -1.66699 -19 -5c-6 -3.33301 -10.333 -8 -13 -14l-219 -402c-7.33301 -12 -7.33301 -24 0 -36c2.66699 -4.66699 7 -9 13 -13c6.66699 -3.33301 13 -5 19 -5h438c6 0 12.333 1.66699 19 5c6 4 10.333 8.33301 13 13
c7.33301 12 7.33301 24 0 36z" />
    <glyph glyph-name="uE633" unicode="&#xe633;" 
d="M402 210c0 2 -0.669922 4.33105 -2.00293 6.99805c-1.33301 1.33301 -3.66602 2 -6.99902 2h-18c-3.33301 0 -5.66602 -0.666992 -6.99902 -2c-1.33301 -2.66699 -2 -5 -2 -7v-91c0 -12 -4.66699 -22.667 -14 -32s-20 -14 -32 -14h-238c-12 0 -22.667 4.66699 -32 14
c-8.66699 8.66699 -13 19.334 -13 32.001v238c0 12.667 4.33301 23.334 13 32.001s19.334 13 32.001 13h201c2.66699 0 5 1 7 3s3 4 3 6v19c0 2.66699 -1 4.66699 -3 6c-2 2 -4.33301 3 -7 3h-201c-22.667 0 -42 -8 -58 -24s-24 -35.333 -24 -58v-238
c0 -22.667 8 -42 24 -58s35.333 -24 58 -24h238c22.667 0 42 8 58 24s24 35.333 24 58v91zM511.997 456.998c0 4 -1.66699 8.33301 -5 13c-3.33301 3.33301 -7.66602 5 -12.999 5h-147c-5.33301 0 -9.33301 -1.66699 -12 -5c-4 -4 -6 -8.33301 -6 -13s2 -9 6 -13l50 -50
l-186 -186c-2 -2 -3 -4.33301 -3 -7c0 -3.33301 1 -5.33301 3 -6l32 -33c2 -2 4.33301 -3 7 -3c2 0 4 1 6 3l187 186l50 -50c2.66699 -3.33301 7 -5 13 -5c5.33301 0 9.66602 1.66699 12.999 5c3.33301 4.66699 5 9 5 13v146z" />
    <glyph glyph-name="uE634" unicode="&#xe634;" horiz-adv-x="329" 
d="M137 229c0 -2 -0.666992 -4.33301 -2 -7c-2 -2 -4.33301 -3 -7 -3s-5 1 -7 3c-1.33301 2.66699 -2 5 -2 7v128c0 1.33301 0.666992 3.33301 2 6c2 2 4.33301 3 7 3s5 -1 7 -3c1.33301 -2.66699 2 -4.66699 2 -6v-128zM329 128c0 24.667 -7.33008 45.6689 -21.9971 63.002
c-14.667 18.667 -31.667 28 -51 28v147c10 0 18.667 3.66699 26 11s11 15.666 11 24.999c0 10 -3.66699 18.667 -11 26c-8.66699 7.33301 -17.334 11 -26.001 11h-183c-8.66699 0 -17.334 -3.66699 -26.001 -11c-6.66699 -6.66699 -10 -15.334 -10 -26.001
c0 -10 3.33301 -18.333 10 -25c7.33301 -7.33301 16 -11 26 -11v-147c-19.333 0 -36.333 -9.33301 -51 -28c-14.667 -17.333 -22 -38.333 -22 -63c0 -4 1.66699 -8.33301 5 -13c4.66699 -3.33301 9 -5 13 -5h116l21 -139c1.33301 -5.33301 4.66602 -8 9.99902 -8
c2 0 4 1 6 3l3 6l14 138h123c4 0 8.33301 1.66699 13 5c3.33301 4.66699 5 9 5 13z" />
    <glyph glyph-name="uE635" unicode="&#xe635;" horiz-adv-x="403" 
d="M402 121c0 3.33301 -0.332031 5.33398 -0.999023 6.00098c-0.666992 4 -7.66699 9 -21 15c-1.33301 0.666992 -6.66602 3.66699 -15.999 9c-2 0.666992 -5 2.16699 -9 4.5s-7 4.16602 -9 5.49902l-15 9l-7 5c-1.33301 0.666992 -3.16602 1.83398 -5.49902 3.50098
s-3.83301 2.5 -4.5 2.5c-4 1.33301 -7 2 -9 2c-2.66699 0 -7.33398 -2.66699 -14.001 -8c-4 -4 -9.33301 -10 -16 -18c-4 -6 -9 -12 -15 -18c-5.33301 -5.33301 -9.66602 -8 -12.999 -8c-1.33301 0 -3.33301 0.666992 -6 2l-6 2
c-0.666992 0.666992 -1.66699 1.33398 -3 2.00098c-2 0.666992 -3.33301 1.33398 -4 2.00098l-5 3c-26.667 14.667 -49.334 31.334 -68.001 50.001c-20 21.333 -36.333 43.666 -49 66.999l-1 2c-1.33301 1.33301 -2.33301 2.66602 -3 3.99902l-4 6
c0 1.33301 -0.666992 3.33301 -2 6c-0.666992 2 -1 4.33301 -1 7c0 4 2.66699 8.33301 8 13c3.33301 3.33301 9 8.33301 17 15c8 5.33301 14 10.666 18 15.999c5.33301 4.66699 8 9.33398 8 14.001c0 3.33301 -0.666992 6 -2 8c-0.666992 2.66699 -2.66699 6 -6 10
c-0.666992 1.33301 -1.33398 2.5 -2.00098 3.5s-1.33398 1.83301 -2.00098 2.5l-1 1c-4 6.66699 -7 12 -9 16c-1.33301 2 -3 5 -5 9s-3.66699 7 -5 9c-2.66699 5.33301 -5.33398 10.333 -8.00098 15c-6.66699 13.333 -11.667 20.666 -15 21.999
c-1.33301 0.666992 -3.33301 1 -6 1c-5.33301 0 -12.333 -1 -21 -3c-7.33301 -2 -13.666 -4 -18.999 -6c-10 -4 -20 -15.667 -30 -35c-10 -18 -15 -35.667 -15 -53c-0 -6.66699 0.333008 -11.667 1 -15c1.33301 -6.66699 2.66602 -12 3.99902 -16
c0.666992 -2.66699 2 -7.33398 4 -14.001c0 -0.666992 0.333008 -1.66699 1 -3s1.5 -3.33301 2.5 -6s1.83301 -5 2.5 -7c2 -6 3.66699 -10.667 5 -14c5.33301 -16.667 13 -33.334 23 -50.001c14.667 -23.333 35.334 -48.333 62.001 -75
c27.333 -27.333 52.666 -48 75.999 -62c13.333 -8.66699 30 -16.667 50 -24c0.666992 0 5.33398 -1.66699 14.001 -5c7.33301 -3.33301 12.333 -5.33301 15 -6c0.666992 0 2.66699 -0.5 6 -1.5s6 -1.83301 8 -2.5c6 -2 11.333 -3 16 -3c3.33301 -0.666992 8.33301 -1 15 -1
c19.333 0 37.333 4.66699 54 14c18.667 10.667 30 20.667 34 30c2.66699 4.66699 4.66699 11.334 6 20.001c2 8 3 14.667 3 20z" />
    <glyph glyph-name="uE636" unicode="&#xe636;" horiz-adv-x="366" 
d="M329 402v-355l-121 116l-25 25l-146 -141v355h292zM333 439h-300c-4 0 -8 -1 -12 -3c-6.66699 -2 -11.667 -5.66699 -15 -11c-4 -6 -6 -12 -6 -18v-368c0 -7.33301 2 -13.333 6 -18c2.66699 -4.66699 7.66699 -8.66699 15 -12c2.66699 -1.33301 6.66699 -2 12 -2
c8.66699 0 16.667 3 24 9l126 121l126 -121c7.33301 -6 15.333 -9 24 -9c4 0 8 0.666992 12 2c6 3.33301 11 7.33301 15 12s6 10.667 6 18v368c0 6 -2 12 -6 18c-4.66699 5.33301 -9.66699 9 -15 11c-4 2 -8 3 -12 3z" />
    <glyph glyph-name="uE637" unicode="&#xe637;" horiz-adv-x="366" 
d="M333 439h-300c-4 0 -8 -1 -12 -3c-6.66699 -2 -11.667 -5.66699 -15 -11c-4 -6 -6 -12 -6 -18v-368c0 -7.33301 2 -13.333 6 -18c2.66699 -4.66699 7.66699 -8.66699 15 -12c2.66699 -1.33301 6.66699 -2 12 -2c8.66699 0 16.667 3 24 9l126 121l126 -121
c7.33301 -6 15.333 -9 24 -9c4 0 8 0.666992 12 2c6 3.33301 11 7.33301 15 12s6 10.667 6 18v368c0 6 -2 12 -6 18c-4.66699 5.33301 -9.66699 9 -15 11c-4 2 -8 3 -12 3z" />
    <glyph glyph-name="uE638" unicode="&#xe638;" horiz-adv-x="476" 
d="M468 339c-4 5.33301 -9.66406 9.33203 -16.9971 11.999c0.666992 -5.33301 0.333984 -10.666 -0.999023 -15.999l-86 -282c-0.666992 -4.66699 -4 -8.66699 -10 -12c-4.66699 -2.66699 -10 -4 -16 -4h-263c-23.333 0 -37.333 6.66699 -42 20
c-1.33301 5.33301 -1 9.33301 1 12s5.66699 4 11 4h248c18 0 30.333 3.33301 37 10c6.66699 8 13.334 22.667 20.001 44l78 259c4 14.667 2.33301 27 -5 37c-6.66699 10.667 -17.334 16 -32.001 16h-218c-2 0 -6.66699 -1 -14 -3v1c-6.66699 1.33301 -11.334 2 -14.001 2
c-4 0 -7.33301 -1.33301 -10 -4c-4 -2.66699 -6.66699 -4.66699 -8 -6c-0.666992 -2 -2.33398 -5 -5.00098 -9c-0.666992 -1.33301 -1.5 -3.16602 -2.5 -5.49902s-1.83301 -4.16602 -2.5 -5.49902c-1.33301 -4 -2.66602 -7.33301 -3.99902 -10
c-0.666992 -0.666992 -1.5 -2 -2.5 -4s-1.83301 -3.33301 -2.5 -4c-1.33301 -2.66699 -3 -4.66699 -5 -6c-2.66699 -4 -4.33398 -6.33301 -5.00098 -7c-1.33301 -2.66699 -2 -4.33398 -2 -5.00098v-8c0.666992 -2 1 -4.33301 1 -7c-1.33301 -8.66699 -4 -18 -8 -28
c-4 -10.667 -8 -18.667 -12 -24l-6 -6c-4 -2.66699 -6 -5.66699 -6 -9c-0.666992 -0.666992 -1 -3.33398 -1 -8.00098c0.666992 -2.66699 1 -5.66699 1 -9c-1.33301 -8 -3.66602 -16.667 -6.99902 -26c-4.66699 -11.333 -8.66699 -20 -12 -26l-1 -1
c-0.666992 -0.666992 -1.33398 -1.5 -2.00098 -2.5s-1.33398 -2.16699 -2.00098 -3.5c-2 -2 -3.66699 -4.66699 -5 -8v-8c1.33301 -3.33301 1.33301 -6 0 -8c-0.666992 -6 -3.33398 -14.667 -8.00098 -26c-2.66699 -7.33301 -7 -16 -13 -26c-1.33301 -2.66699 -3 -5 -5 -7
c-2.66699 -4 -4.33398 -6.33301 -5.00098 -7s-1 -1.66699 -1 -3s-0.333008 -2.33301 -1 -3c0 -2 0.333008 -3.66699 1 -5c0.666992 -2 1 -4.33301 1 -7c0 -0.666992 -0.166992 -2.16699 -0.5 -4.5s-0.5 -4.16602 -0.5 -5.49902c-0.666992 -3.33301 -1 -6 -1 -8
c-4 -11.333 -4 -23.333 0 -36c6.66699 -16 16.334 -28.667 29.001 -38c13.333 -10 27.333 -15 42 -15h264c12 0 23.667 4 35 12c10.667 8.66699 18 19 22 31l78 259c4.66699 13.333 3 25.666 -5 36.999zM164.003 337.999l6 19c0.666992 1.33301 2.33398 3.33301 5.00098 6
c2 2 4.33301 3 7 3h174c2.66699 0 4.66699 -1 6 -3s1.33301 -4 0 -6l-6 -19c0 -1.33301 -1.33301 -3.33301 -4 -6c-2.66699 -2 -5.33398 -3 -8.00098 -3h-173c-3.33301 0 -5.33301 1 -6 3c-0.666992 1.33301 -1 3.33301 -1 6zM141.003 264.999l6.00098 17.999
c0 2 1.33301 4.33301 4 7c3.33301 2 6 3 8 3h173c2.66699 0 4.66699 -1 6 -3c0.666992 -1.33301 1 -3.66602 1 -6.99902l-6 -18c-0.666992 -1.33301 -2.33398 -3.33301 -5.00098 -6c-2.66699 -2 -5 -3 -7 -3h-174c-3.33301 0 -5.33301 1 -6 3s-0.666992 4 0 6z" />
    <glyph glyph-name="uE639" unicode="&#xe639;" horiz-adv-x="366" 
d="M366 256l-156.002 0.000976562c-7.33301 0 -13.666 2.66699 -18.999 8s-8 11.666 -8 18.999v156h-156c-7.33301 0 -13.666 -2.66699 -18.999 -8s-8 -12 -8 -20v-384c0 -7.33301 2.66699 -13.666 8 -18.999s11.666 -8 18.999 -8h311c6.66699 0 13.334 2.66699 20.001 8
c5.33301 5.33301 8 11.666 8 18.999v229zM364.998 293.001c-3.33301 16 -9.66602 28.334 -18.999 37.001l-89 89c-8.66699 9.33301 -21.334 15.666 -38.001 18.999v-145h146z" />
    <glyph glyph-name="uE63A" unicode="&#xe63a;" horiz-adv-x="366" 
d="M293 82c0 -2.66699 -1 -4.66699 -3 -6c-2 -2 -4.33301 -3 -7 -3h-201c-2.66699 0 -4.66699 1 -6 3c-2 1.33301 -3 3.33301 -3 6v19c0 2 1 4 3 6c1.33301 2 3.33301 3 6 3h201c2.66699 0 5 -1 7 -3s3 -4 3 -6v-19zM293 155c0 -2 -1 -4 -3 -6s-4.33301 -3 -7 -3h-201
c-2.66699 0 -4.66699 1 -6 3c-2 2 -3 4 -3 6v19c0 2.66699 1 4.66699 3 6c1.33301 2 3.33301 3 6 3h201c2.66699 0 5 -1 7 -3c2 -1.33301 3 -3.33301 3 -6v-19zM366 256l-156.002 0.000976562c-7.33301 0 -13.666 2.66699 -18.999 8s-8 11.666 -8 18.999v156h-156
c-7.33301 0 -13.666 -2.66699 -18.999 -8s-8 -12 -8 -20v-384c0 -7.33301 2.66699 -13.666 8 -18.999s11.666 -8 18.999 -8h311c6.66699 0 13.334 2.66699 20.001 8c5.33301 5.33301 8 11.666 8 18.999v229zM364.998 293.001c-3.33301 16 -9.66602 28.334 -18.999 37.001
l-89 89c-8.66699 9.33301 -21.334 15.666 -38.001 18.999v-145h146z" />
    <glyph glyph-name="uE63B" unicode="&#xe63b;" horiz-adv-x="439" 
d="M357 439h-275c-22.667 0 -42 -8 -58 -24s-24 -35.333 -24 -58v-275c0 -22.667 8 -42 24 -58s35.333 -24 58 -24h275c22.667 0 42 8 58 24s24 35.333 24 58v275c0 22.667 -8 42 -24 58s-35.333 24 -58 24zM199 219c0 -17.333 -5.66699 -31.334 -17 -42.001
c-12 -12 -26.333 -18 -43 -18s-31 6 -43 18c-12 11.333 -18 25.333 -18 42s6 31 18 43s26.333 18 43 18s31 -6 43 -18c11.333 -11.333 17 -25.666 17 -42.999zM361 218.999c0 -16.667 -6 -30.667 -18 -42c-12 -12 -26.333 -18 -43 -18s-31 6 -43 18
c-12 11.333 -18 25.333 -18 42s6 31 18 43s26.333 18 43 18s31 -6 43 -18s18 -26.333 18 -43z" />
    <glyph glyph-name="uE63C" unicode="&#xe63c;" horiz-adv-x="439" 
d="M219 439c-39.333 0 -76.001 -9.99902 -110.001 -29.999c-32.667 -18.667 -59.334 -45 -80.001 -79c-19.333 -34.667 -29 -71.667 -29 -111c0 -38.667 9.66699 -75.334 29 -110.001c20 -33.333 46.667 -60 80 -80c34.667 -19.333 71.334 -29 110.001 -29
c39.333 0 76.333 9.66699 111 29c34 20.667 60.333 47.334 79 80.001c20 34 30 70.667 30 110c0 40 -10 77 -30 111c-19.333 33.333 -45.666 59.666 -78.999 78.999c-34 20 -71 30 -111 30zM328.999 204.001l-155 -92.001c-4 -1.33301 -7 -2 -9 -2
c-4.66699 0 -8 0.666992 -10 2c-6 4 -9 9.33301 -9 16v183c0 6.66699 3 12 9 16c6.66699 2.66699 13 2.66699 19 0l155 -92c6 -3.33301 9 -8.66602 9 -15.999s-3 -12.333 -9 -15z" />
    <glyph glyph-name="uE63D" unicode="&#xe63d;" horiz-adv-x="403" 
d="M398 128c-17.333 5.33301 -32.334 17.335 -45.001 36.002c-13.333 19.333 -20 40.666 -20 63.999c0 22 6.33301 41.667 19 59c5.33301 8.66699 16 20 32 34c-10.667 12.667 -20.334 22 -29.001 28c-17.333 12.667 -37.666 19 -60.999 19c-14 0 -30.667 -3.33301 -50 -10
c-18 -6 -31.667 -9 -41 -9c-8 0 -21 2.66699 -39 8c-20 6 -37 9 -51 9c-32 0 -59 -13.667 -81 -41c-21.333 -28.667 -32 -64.334 -32 -107.001c0 -46 14 -94 42 -144c28 -49.333 56.667 -74 86 -74c10 -0 22.667 3.33301 38 10c14.667 6 28 9 40 9c12.667 0 27 -3 43 -9
c18 -6 31.333 -9 40 -9c24 0 48.667 18.667 74 56c16.667 25.333 28.334 49 35.001 71zM290.999 463.002c0 1.33301 -0.334961 2.33105 -1.00195 2.99805v3v3l-1 3c-32.667 -6.66699 -56.667 -20.667 -72 -42c-13.333 -19.333 -20.666 -43.666 -21.999 -72.999
c14.667 1.33301 24.667 3 30 5c8.66699 2.66699 19 9.33398 31 20.001c12.667 12.667 21.334 26 26.001 40c6 14 9 26.667 9 38z" />
    <glyph glyph-name="uE63E" unicode="&#xe63e;" horiz-adv-x="476" 
d="M195 188h-195v-159l195 -27v186zM195 400l-195 -27v-161h195v188zM475 188h-259v-189l259 -36v225zM475 439l-259 -36v-191h259v227z" />
    <glyph glyph-name="uE63F" unicode="&#xe63f;" horiz-adv-x="403" 
d="M141 337c-2.66699 0 -5.33203 1.33301 -7.99902 4c-2 2 -3 4.66699 -3 8c0 2.66699 1 5 3 7c2 2.66699 4.66699 4 8 4s6 -1.33301 8 -4c2 -2 3 -4.33301 3 -7c0 -3.33301 -1 -6 -3 -8c-2.66699 -2.66699 -5.33398 -4 -8.00098 -4zM261.002 337
c-2 0 -4.33203 1.33301 -6.99902 4c-2.66699 2 -4 4.66699 -4 8c0 2.66699 1.33301 5 4 7c2 2.66699 4.33301 4 7 4c3.33301 0 6 -1.33301 8 -4c2 -2 3 -4.33301 3 -7c0 -3.33301 -1 -6 -3 -8c-2.66699 -2.66699 -5.33398 -4 -8.00098 -4zM29.0029 285
c-8.66699 0 -15.333 -3 -20 -9c-6 -5.33301 -9 -12 -9 -20v-123c0 -8 3 -15 9 -21c5.33301 -6 12 -9 20 -9c8.66699 0 15.667 3 21 9c6 6 9 13 9 21v123c0 8 -3 14.667 -9 20c-6 6 -13 9 -21 9zM332.004 279h-262v-190c0 -8.66699 3 -16 9 -22s13.333 -9 22 -9h22v-65
c0 -7.33301 2.66699 -14.333 8 -21c6 -6 13 -9 21 -9s15 3 21 9c5.33301 5.33301 8 12.333 8 21v65h40v-65c0 -7.33301 2.66699 -14.333 8 -21c6 -6 13 -9 21 -9s15 3 21 9s9 13 9 21v65h21c8.66699 0 16 3 22 9s9 13.333 9 22v190zM266.004 395l20 38.001
c2 2 1.66699 3.66699 -1 5c-3.33301 1.33301 -5.33301 1 -6 -1l-20 -38c-18.667 8 -38 12 -58 12s-39 -4 -57 -12l-21 38c-0.666992 2 -2.66699 2.33301 -6 1c-2 -0.666992 -2.33301 -2.33398 -1 -5.00098l20 -38c-20.667 -10 -37 -24.667 -49 -44
c-12 -18 -18 -38.333 -18 -61h264c0 22.667 -6 43 -18 61c-12 19.333 -28.333 34 -49 44zM402.004 256.001c0 8 -2.66699 14.667 -8 20c-6 6 -13 9 -21 9s-15 -3 -21 -9c-5.33301 -5.33301 -8 -12 -8 -20v-123c0 -7.33301 2.66699 -14.333 8 -21c6 -6 13 -9 21 -9s15 3 21 9
c5.33301 6.66699 8 13.667 8 21v123z" />
    <glyph glyph-name="uE640" unicode="&#xe640;" horiz-adv-x="439" 
d="M189 358l-2.00098 -0.000976562c-4 -1.33301 -6 -2.66602 -6 -3.99902s0.666992 -2 2 -2c0.666992 0.666992 1.33398 1.66699 2.00098 3c0.666992 2 2 3 4 3zM213.999 353.999c1.33301 1.33301 1.66699 2.33203 1 2.99902c-0.666992 2 -3.66699 2 -9 0
c2 0.666992 3.66699 0.333984 5 -0.999023zM114 231.998c0.666992 0 0.999023 -0.332031 0.999023 -0.999023v-1v-1v-2l-1 -1c0 -1.33301 -0.333008 -2 -1 -2c0 -1.33301 -1 -3 -3 -5s-3.33301 -2.66699 -4 -2c-1.33301 0 -1 1 1 3l2 4c1.33301 1.33301 2 2.66602 2 3.99902
l1 1v2c0.666992 0.666992 1.33398 1 2.00098 1zM357.999 128.999c-4 4 -9.66309 6.33398 -16.9961 7.00098c-7.33301 1.33301 -14.333 0.333008 -21 -3c-6 -3.33301 -9 -8.33301 -9 -15c-6.66699 0 -11.667 -1.66699 -15 -5
c-3.33301 -4.66699 -5.66602 -11.667 -6.99902 -21c0 -8 1 -17 3 -27c1.33301 -12 1.66602 -19 0.999023 -21c0 -6.66699 -1 -15.334 -3 -26.001l-4 -14l-1 -8c-4 0 -6 1.33301 -6 4c-0.666992 2 -0.333984 5.66699 0.999023 11c4.66699 15.333 7 24 7 26
c0 8.66699 -1 13.667 -3 15s-5.33301 -1.33398 -10 -8.00098c-8 -13.333 -24.667 -21.666 -50 -24.999c-23.333 -3.33301 -39.333 0 -48 10c-2.66699 1.33301 -4.33398 1.66602 -5.00098 0.999023c-2.66699 -1.33301 -4 -2.33301 -4 -3v-2c0.666992 0 1.66699 -1 3 -3
c0 -0.666992 0.333008 -1.5 1 -2.5s1.33398 -1.83301 2.00098 -2.5c7.33301 -12.667 6.66602 -21.334 -2.00098 -26.001c0 8 -0.666992 14.667 -2 20c-0.666992 4 -3.33398 9.33301 -8.00098 16c-3.33301 4.66699 -6 8.66699 -8 12c6 0.666992 10.333 3 13 7
c2.66699 3.33301 4 7.33301 4 12c0 4 -1.66699 7.66699 -5 11l-27 22c-17.333 14 -27 22.667 -29 26c-2 2 -4.33301 4 -7 6c-4 2.66699 -6.33301 5.33398 -7 8.00098c-9.33301 19.333 -10.333 35 -3 47l1 1v-5c-0.666992 -3.33301 -1 -8.66602 -1 -15.999
c1.33301 -12.667 4.66602 -21.667 9.99902 -27c4 -4 7 -3.66699 9 1c0.666992 1.33301 1 7 1 17c0 10.667 0.333008 17.334 1 20.001c0.666992 8.66699 5 22 13 40c8 16.667 14 25.334 18 26.001c-4 6 -5 12 -3 18c1.33301 6.66699 3.33301 12 6 16l8 16
c2.66699 5.33301 4 10.666 4 15.999l1 3c0 2.66699 2.33301 0.666992 7 -6c8 -12 14 -19 18 -21s8.66699 -2 14 0c5.33301 3.33301 11.666 7.66602 18.999 12.999c9.33301 6.66699 15.666 10.667 18.999 12c0.666992 0 1.66699 0.666992 3 2h1
c0.666992 0.666992 1.33398 1 2.00098 1c0.666992 0.666992 1.33398 1 2.00098 1s1 0.333008 1 1l2 1l1 1c0.666992 0 1 0.166992 1 0.5s0.333008 0.5 1 0.5v2l-3 3c-1.33301 0 -3 -0.333008 -5 -1c-2.66699 -1.33301 -5 -2.33301 -7 -3
c-0.666992 -0.666992 -2 -1.5 -4 -2.5s-3.33301 -1.83301 -4 -2.5c-4 -2.66699 -7.33301 -4.33398 -10 -5.00098c-2.66699 -1.33301 -6 -2.66602 -10 -3.99902c-5.33301 -1.33301 -8.66602 -2 -9.99902 -2c-8.66699 0 -15 2 -19 6c-3.33301 3.33301 -5 5.33301 -5 6
s0.666992 0.666992 2 0c10.667 -0.666992 18.334 -0.666992 23.001 0c1.33301 0 8 2 20 6c4 2 8.33301 4 13 6c7.33301 3.33301 12.666 5.33301 15.999 6c2.66699 0 4.33398 1 5.00098 3c0.666992 0.666992 1 1.66699 1 3l-2 2c-2 2 -4 1.33301 -6 -2
c-0.666992 -0.666992 -2.66699 -2.33398 -6 -5.00098c-0.666992 0 -1.5 -0.333008 -2.5 -1l-3 -2c-1 -0.666992 -1.83301 -1 -2.5 -1c-2.66699 0 -6 -1 -10 -3l-7 -2c-8.66699 -2.66699 -18.334 -4 -29.001 -4c-4 0 -7.33301 0.666992 -10 2
c-2.66699 0.666992 -4.33398 2 -5.00098 4l-5 5c-2.66699 2.66699 -5 4.66699 -7 6s-2.66699 3 -2 5c0 1.33301 1.33301 4 4 8l6 3c1.33301 0.666992 4 3 8 7c1.33301 2 4.33301 4.66699 9 8v6c0 4 -1 8 -3 12c-0.666992 4 -3 6 -7 6s-7.33301 -1.33301 -10 -4
c-2 -3.33301 -3 -7 -3 -11c0.666992 -2.66699 1.66699 -6 3 -10c2.66699 -2.66699 4.33398 -4 5.00098 -4c1.33301 0 2 -0.666992 2 -2c-2 -2 -3.66699 -3.33301 -5 -4c-2 0 -3.33301 1.33301 -4 4c-2 2.66699 -3.33301 6.33398 -4 11.001c-0.666992 2.66699 -1 6 -1 10
c0 6 1.66699 11.667 5 17c2 5.33301 5.66699 8 11 8c6 0 10.333 -3.33301 13 -10c3.33301 -5.33301 5 -13.666 5 -24.999c0 -1.33301 1.33301 -2 4 -2c2.66699 0.666992 6 0.666992 10 0c3.33301 0 6 -1 8 -3v5c-2.66699 23.333 6 36 26 38
c1.33301 -0.666992 2.83301 -1 4.5 -1s2.83398 -0.333008 3.50098 -1c1.33301 -0.666992 3.33301 -2.33398 6 -5.00098c3.33301 -2 5.33301 -4.66699 6 -8c1.33301 -2.66699 2.66602 -7.66699 3.99902 -15v-10c0 -6.66699 -1.33301 -10 -4 -10c-3.33301 -2 -6 -2 -8 0
c-2 1.33301 -2 3.66602 0 6.99902c2 5.33301 1.66699 11 -1 17c-2 6.66699 -6.66699 9.33398 -14 8.00098c-4.66699 0 -8.33398 -2.33301 -11.001 -7c-1.33301 -3.33301 -2 -8.33301 -2 -15c0.666992 -4.66699 1.66699 -7 3 -7s4.66602 -1.66699 9.99902 -5
c2.66699 -1.33301 7 -3 13 -5c8 -2 12.333 -4.33301 13 -7c0.666992 -2 0.333984 -6.66699 -0.999023 -14c-2 -6.66699 -2.66699 -12 -2 -16c1.33301 -5.33301 2.66602 -9 3.99902 -11c3.33301 -5.33301 5.66602 -8.33301 6.99902 -9c2 -3.33301 4.66699 -8.66602 8 -15.999
c2 -4 5 -14 9 -30l2 -2c2 -0.666992 3.33301 -2 4 -4c0 -0.666992 0.5 -1.66699 1.5 -3s1.83301 -2.66602 2.5 -3.99902c2 -3.33301 4 -7.66602 6 -12.999c2.66699 -8 4.66699 -14.667 6 -20c2 -8.66699 3 -18.667 3 -30c0 -10.667 0.666992 -18.667 2 -24
c1.33301 -4 5 -6 11 -6c7.33301 0.666992 12 4.66699 14 12c6.66699 22.667 1.66699 49.334 -15 80.001c-5.33301 10.667 -10.666 18.667 -15.999 24c6.66699 -4.66699 13.334 -12 20.001 -22c7.33301 -10.667 12 -20.334 14 -29.001
c0 -2.66699 0.333008 -5.33398 1 -8.00098c0.666992 -1.33301 1 -3 1 -5c0.666992 -0.666992 1 -1.33398 1 -2.00098c0 -2 0.333008 -4 1 -6s1 -4 1 -6v-6v-6c0 -0.666992 -0.166992 -1.66699 -0.5 -3s-0.5 -2.33301 -0.5 -3s-0.166992 -2 -0.5 -4s-0.5 -3.33301 -0.5 -4
c-1.33301 -2.66699 -2 -5.33398 -2 -8.00098c10 -4 15 -8 15 -12zM179.003 366c0 -0.666992 -0.332031 -1 -0.999023 -1c-2.66699 0 -3.33398 2 -2.00098 6c0 2.66699 -0.666992 4 -2 4l-2 2c0 1.33301 1 2 3 2c1.33301 -1.33301 2.33301 -3 3 -5
c0.666992 -1.33301 1 -4 1 -8zM299.004 309c0 -2.66699 -0.333008 -4.33203 -1 -4.99902c-1.33301 -2 -3 -3 -5 -3c-3.33301 1.33301 -7 4.33301 -11 9c-3.33301 5.33301 -4 9.66602 -2 12.999h1c0.666992 0 1.33398 -0.333008 2.00098 -1l1 -1v-1l2 -2
c1.33301 -1.33301 2.33301 -2 3 -2c1.33301 -1.33301 2.66602 -2 3.99902 -2h3l1 -1zM248.004 370.002l-1 -1c-1.33301 -1.33301 -2 -1.33301 -2 0c-0.666992 4.66699 -2.33398 7.66699 -5.00098 9h-1c-2.66699 1.33301 -2 2 2 2c0.666992 0 1.33398 -0.333008 2.00098 -1
l3 -3c1.33301 -2.66699 2 -4.66699 2 -6zM263.004 437.002c0 -1.33301 -0.666016 -2.00098 -1.99902 -2.00098c-1.33301 -0.666992 -3 -1 -5 -1h-2c-2.66699 -1.33301 -4.33398 -2.33301 -5.00098 -3c-1.33301 -1.33301 -2.33301 -2 -3 -2
c0 -1.33301 -0.666992 -1.33301 -2 0l-1 2c0 0.666992 0.666992 1.66699 2 3c0.666992 0 1 0.333008 1 1s0.333008 1.33398 1 2.00098v3v4c0 1.33301 1 2 3 2s4.33301 -1.33301 7 -4c0.666992 0 1.66699 -0.666992 3 -2c1.33301 0 2 -0.666992 2 -2zM425.005 54.001
c-0.666992 0 -2.3291 0.666992 -4.99609 2l-6 4c-2 1.33301 -4 3.33301 -6 6c-2.66699 2 -4.66699 4.66699 -6 8c-2 2.66699 -3.33301 6.33398 -4 11.001c-0.666992 2 -1.33398 5 -2.00098 9s-1 6.33301 -1 7c-2.66699 -2.66699 -4 -7 -4 -13c0 -8 1.33301 -15 4 -21
s7.33398 -10.667 14.001 -14c4.66699 -1.33301 9.66699 -3.33301 15 -6c4 -2.66699 6.33301 -5.33398 7 -8.00098c1.33301 -4 -0.333984 -7.33301 -5.00098 -10c-3.33301 -2.66699 -10.666 -6.33398 -21.999 -11.001c-9.33301 -2.66699 -19.333 -6.66699 -30 -12
c-4.66699 -2.66699 -13 -9 -25 -19c-8.66699 -6.66699 -16.667 -10 -24 -10c-8.66699 0 -15.667 3 -21 9c-5.33301 6.66699 -7 16.334 -5 29.001c3.33301 25.333 3 44 -1 56c-2.66699 8.66699 -3.33398 18 -2.00098 28c2 6.66699 4.66699 11.334 8 14.001
c4 0.666992 8 -2.33301 12 -9c0 -1.33301 1 -3.33301 3 -6c1.33301 -2.66699 2.33301 -4.33398 3 -5.00098c0.666992 -1.33301 2 -3 4 -5c0.666992 -0.666992 2.66699 -2 6 -4c1.33301 0 3 -0.166992 5 -0.5s3.33301 -0.5 4 -0.5c6.66699 0 12.667 1.33301 18 4
c5.33301 3.33301 9 6.33301 11 9c0.666992 1.33301 1.83398 3.16602 3.50098 5.49902s3.16699 4.16602 4.5 5.49902c2 3.33301 4.33301 5 7 5c2 0 3.66699 2 5 6c1.33301 3.33301 2.66602 8.66602 3.99902 15.999c0 10 -0.666992 18 -2 24c-3.33301 18.667 -9 37 -17 55
c-7.33301 18 -16.666 33.333 -27.999 46c-19.333 20.667 -32 41.667 -38 63c-7.33301 22 -10.333 42.333 -9 61c0.666992 12 -2 26 -8 42c-7.33301 16 -16 27.667 -26 35c-6.66699 4.66699 -15.334 8.66699 -26.001 12c-13.333 2.66699 -23.333 3.66699 -30 3
c-12 0 -22 -2 -30 -6c-14.667 -8 -24.667 -17.667 -30 -29c-4.66699 -11.333 -7 -26 -7 -44c1.33301 -43.333 3 -72.666 5 -87.999c-3.33301 -10.667 -15.333 -29.334 -36 -56.001c-2 -2 -5.66699 -7 -11 -15c-0.666992 -2 -2 -5 -4 -9s-3.33301 -7 -4 -9
c-0.666992 -0.666992 -3.66699 -8 -9 -22c-1.33301 -3.33301 -2.83301 -7.33301 -4.5 -12s-2.5 -7.66699 -2.5 -9c-0.666992 -1.33301 -1.83398 -3.33301 -3.50098 -6s-2.83398 -4.66699 -3.50098 -6c-1.33301 -1.33301 -3.66602 -5.66602 -6.99902 -12.999
c-1.33301 -6.66699 -2 -11.667 -2 -15v-11c0.666992 -2 1.16699 -3.33301 1.5 -4s1.16602 -0.666992 2.49902 0c9.33301 6.66699 20.333 2.66699 33 -12c7.33301 -7.33301 23.333 -30.333 48 -69c2.66699 -4 4.66699 -7.33301 6 -10
c0.666992 -1.33301 1.16699 -2.66602 1.5 -3.99902s0.833008 -3.16602 1.5 -5.49902s1.33398 -4.16602 2.00098 -5.49902c2 -6.66699 2.66699 -12.334 2 -17.001c0 -4.66699 -2 -9 -6 -13c-3.33301 -4 -9.66602 -6.66699 -18.999 -8c-4.66699 -1.33301 -10 -1 -16 1
c-6.66699 1.33301 -14.334 3.33301 -23.001 6c-12 3.33301 -19 5.66602 -21 6.99902c-2 0 -6.16699 0.666992 -12.5 2s-11.833 2.33301 -16.5 3l-24 6c-6.66699 1.33301 -10 3.66602 -10 6.99902c-0.666992 2.66699 0.666016 7.33398 3.99902 14.001
c2.66699 5.33301 4 10 4 14c0.666992 2 0.666992 4 0 6c0 0.666992 -0.333008 1.66699 -1 3v2l-1 2c-0.666992 1.33301 -1.33398 2.33301 -2.00098 3c0 0.666992 -0.166992 1.5 -0.5 2.5s-0.833008 1.83301 -1.5 2.5c-3.33301 8.66699 -3.66602 14.334 -0.999023 17.001
c1.33301 2.66699 5.33301 3.33398 12 2.00098c9.33301 -0.666992 17.333 1 24 5c10 6 13 16 9 30c0 -6.66699 -1.33301 -11.667 -4 -15c-1.33301 -2.66699 -5.33301 -6 -12 -10c-6 -2 -11.667 -3 -17 -3c-6.66699 0 -12 -1.33301 -16 -4c-2 -2 -3 -4.66699 -3 -8
c0 -4.66699 0.333008 -8 1 -10l3 -12c0.666992 -3.33301 1 -7.33301 1 -12c0 -1.33301 -1.66699 -6.33301 -5 -15c-3.33301 -9.33301 -4 -15.666 -2 -18.999c0.666992 -1.33301 2.33398 -3.33301 5.00098 -6c4.66699 -2 8 -3.33301 10 -4
c1.33301 0 3.16602 -0.333008 5.49902 -1s4.16602 -1.33398 5.49902 -2.00098c1.33301 0 6 -0.666992 14 -2c6 -0.666992 11 -1.66699 15 -3c6.66699 -1.33301 20.334 -5.33301 41.001 -12c16 -6 26.667 -9 32 -9c6 0 11 1 15 3c8 4.66699 12.333 7.33398 13 8.00098
c3.33301 2.66699 8.33301 5.66699 15 9c6 2.66699 13.667 4 23 4c1.33301 0 3.66602 0.166992 6.99902 0.5s6.33301 0.5 9 0.5h17h37c6 0 10.333 -1 13 -3c3.33301 -0.666992 5.66602 -2.33398 6.99902 -5.00098c0 -0.666992 0.333008 -1.33398 1 -2.00098l3 -6
c3.33301 -3.33301 6.33301 -5.33301 9 -6c6.66699 -4 15 -5.33301 25 -4c8.66699 0 15.334 1.66699 20.001 5c4.66699 4.66699 11.667 10.667 21 18c10.667 8.66699 19 14 25 16c0.666992 0.666992 1.66699 1.33398 3 2.00098l4 2
c5.33301 2.66699 8.33301 4.33398 9 5.00098c4 1.33301 7 2.66602 9 3.99902c4 2 7 4 9 6c0.666992 0.666992 1.83398 1.5 3.50098 2.5s2.83398 1.83301 3.50098 2.5c1.33301 1.33301 2.66602 3.33301 3.99902 6c0.666992 2 1 4.33301 1 7c0 2 -1.33301 4.33301 -4 7
c-0.666992 0.666992 -1.83398 1.66699 -3.50098 3s-3.16699 2.66602 -4.5 3.99902z" />
    <glyph glyph-name="uE641" unicode="&#xe641;" horiz-adv-x="476" 
d="M411 347c0 -8 -2.66699 -14.333 -8 -19c-5.33301 -5.33301 -11.666 -8 -18.999 -8s-13.666 2.66699 -18.999 8c-5.33301 4.66699 -8 11 -8 19c0 8.66699 2.66699 15.334 8 20.001c5.33301 5.33301 11.666 8 18.999 8s13.666 -2.66699 18.999 -8
c5.33301 -4.66699 8 -11.334 8 -20.001zM475 430c0 1.33301 -0.665039 3.33203 -1.99805 5.99902c-2 2 -4.33301 3 -7 3c-49.333 0 -90.333 -6.66699 -123 -20c-32 -13.333 -66.333 -38 -103 -74c-22 -23.333 -38.667 -42 -50 -56l-108 -6c-3.33301 0 -6 -1.33301 -8 -4
l-64 -110c-2 -4 -1.33301 -7.66699 2 -11l18 -18c2 -2 4.33301 -3 7 -3h2l79 25l80 -81l-24 -78c-0.666992 -3.33301 0 -6.66602 2 -9.99902l19 -18c1.33301 -1.33301 3.33301 -2 6 -2c2 0 3.66699 0.333008 5 1l109 64c3.33301 2 5 4.33301 5 7l6 108
c31.333 28.667 49.666 45.667 54.999 51c33.333 34 57.666 68.333 72.999 103c14 34 21 75 21 123z" />
    <glyph glyph-name="uE642" unicode="&#xe642;" horiz-adv-x="476" 
d="M183 128c0 8 -1.33301 15.665 -4 22.998c-2 8.66699 -6 16 -12 22c-6 6.66699 -13 10 -21 10c-8.66699 0 -15.334 -3.33301 -20.001 -10c-5.33301 -5.33301 -9.66602 -12.666 -12.999 -21.999c-2 -8 -3 -15.667 -3 -23s1 -15 3 -23
c3.33301 -9.33301 7.66602 -16.666 12.999 -21.999c4.66699 -6.66699 11.334 -10 20.001 -10c8 0 15 3.33301 21 10c6 6 10 13.333 12 22c2.66699 7.33301 4 15 4 23zM366 127.998c0 8 -1.33301 15.665 -4 22.998c-2 8.66699 -6 16 -12 22c-6 6.66699 -13 10 -21 10
s-15 -3.33301 -21 -10c-4.66699 -5.33301 -8.66699 -12.666 -12 -21.999c-2 -8 -3 -15.667 -3 -23s1 -15 3 -23c3.33301 -9.33301 7.33301 -16.666 12 -21.999c6 -6.66699 13 -10 21 -10s15 3.33301 21 10c6 6 10 13.333 12 22c2.66699 7.33301 4 15 4 23zM411 127.996
c0 -16 -3.00098 -30.6689 -9.00098 -44.002c-6 -12 -13.667 -21.667 -23 -29s-21 -13 -35 -17c-14 -5.33301 -27.333 -8.33301 -40 -9c-16 -1.33301 -30 -2 -42 -2h-48c-11.333 0 -25.666 0.666992 -42.999 2c-12.667 0.666992 -26 3.66699 -40 9
c-12 3.33301 -23.667 9 -35 17c-9.33301 7.33301 -17 17 -23 29c-6 12.667 -9 27.334 -9 44.001c0 22 6.66699 41.333 20 58c13.333 16 31 24 53 24c8.66699 0 27.334 -2 56.001 -6c12.667 -2 27.667 -3 45 -3c16 0 31 1 45 3c29.333 4 47.666 6 54.999 6
c22.667 0 40.667 -8 54 -24c12.667 -15.333 19 -34.666 19 -57.999zM474.999 177.994c0 45.333 -12.6699 83.3359 -38.0029 114.003c4.66699 14 7 30 7 48c0 21.333 -4.66699 42 -14 62c-22 0 -40 -3.66699 -54 -11c-14 -6 -32 -17.333 -54 -34c-25.333 6 -52 9 -80 9
c-27.333 0 -56.666 -3.33301 -87.999 -10c-18 14 -36 25.667 -54 35c-14.667 7.33301 -32.667 11 -54 11c-10 -18.667 -15 -39.334 -15 -62.001c0 -15.333 2.66699 -31.666 8 -48.999c-26 -30 -39 -67.667 -39 -113c0 -40 6 -71.333 18 -94c6 -13.333 14 -24.333 24 -33
c8.66699 -8.66699 20.334 -16.334 35.001 -23.001c12.667 -6 25.667 -11 39 -15c12.667 -4 27.334 -7 44.001 -9c2 0 8.33301 -0.5 19 -1.5s18.334 -1.5 23.001 -1.5c8 -0.666992 21.333 -1 40 -1c22.667 0 38.667 0.333008 48 1
c17.333 1.33301 33.666 3.66602 48.999 6.99902c20.667 3.33301 37 7.66602 49 12.999c14 6 27.333 14.333 40 25c12.667 10 22.667 22.667 30 38c11.333 22 17 53.333 17 94z" />
    <glyph glyph-name="uE643" unicode="&#xe643;" horiz-adv-x="403" 
d="M402 74c0 13.333 -0.333008 23.333 -1 30c0 6 -1.33301 16.333 -4 31c-2.66699 12.667 -5 23 -7 31c-4 11.333 -8.33301 20.666 -13 27.999c-3.33301 6 -9 13.667 -17 23c-7.33301 6 -15.666 11 -24.999 15c-8.66699 4 -19.334 6 -32.001 6
c-0.666992 0 -4.66699 -2 -12 -6c-2.66699 -2.66699 -9.66699 -7.33398 -21 -14.001c-9.33301 -6 -19.666 -10.667 -30.999 -14c-12 -4 -24.667 -6 -38 -6c-12.667 0 -25.334 2 -38.001 6c-11.333 3.33301 -21.666 8 -30.999 14c-11.333 6.66699 -18.333 11.334 -21 14.001
c-6 4 -10 6 -12 6c-11.333 0 -22 -2 -32 -6s-18 -9 -24 -15c-8 -8 -14 -15.667 -18 -23c-4.66699 -8 -8.66699 -17.333 -12 -28c-4 -13.333 -6.66699 -23.666 -8 -30.999l-4 -31c-0.666992 -6.66699 -1 -16.667 -1 -30c0 -22.667 7 -40.667 21 -54
c14.667 -13.333 33 -20 55 -20h250c23.333 0 41.666 6.66699 54.999 20c14 13.333 21 31.333 21 54zM311 329c0 29.333 -10.667 55.334 -32 78.001c-22.667 21.333 -48.667 32 -78 32c-30 0 -55.667 -10.667 -77 -32c-22 -22 -33 -48 -33 -78
c0 -30.667 11 -56.334 33 -77.001c21.333 -22 47 -33 77 -33s56 11 78 33c21.333 21.333 32 47 32 77z" />
    <glyph glyph-name="uE644" unicode="&#xe644;" horiz-adv-x="439" 
d="M439 219c0 34.667 -7.66602 67.335 -22.999 98.002c-14.667 30.667 -36.334 56.667 -65.001 78c-7.33301 6 -16.333 8.33301 -27 7c-10.667 -2 -18.667 -7 -24 -15c-6 -7.33301 -8.33301 -16.333 -7 -27c0.666992 -10 5.33398 -18 14.001 -24
c18.667 -13.333 33 -30.333 43 -51c10.667 -20.667 16 -42.667 16 -66c0 -19.333 -4 -38 -12 -56c-8.66699 -19.333 -19 -35 -31 -47c-14 -14 -29.667 -24.333 -47 -31c-18 -8 -37 -12 -57 -12c-19.333 0 -38 4 -56 12c-17.333 6.66699 -33 17 -47 31s-24.333 29.667 -31 47
c-8 18 -12 36.667 -12 56c0 23.333 5 45.333 15 66c11.333 20.667 26 37.667 44 51c7.33301 5.33301 12 13.333 14 24c1.33301 10.667 -1 19.667 -7 27c-5.33301 8 -13.333 13 -24 15c-10.667 1.33301 -19.667 -1 -27 -7c-28.667 -21.333 -50.334 -47.333 -65.001 -78
c-15.333 -30.667 -23 -63.334 -23 -98.001c0 -28.667 5.66699 -57 17 -85c11.333 -26 27 -49.333 47 -70c20.667 -20 44 -35.667 70 -47c28 -11.333 56.333 -17 85 -17c29.333 0 58 5.66699 86 17c26 11.333 49.333 27 70 47c20.667 21.333 36 44.666 46 69.999
c12 26.667 18 55 18 85zM256.001 439.001c0 8.66699 -3.66504 17.332 -10.998 25.999c-6.66699 6.66699 -15.334 10 -26.001 10c-10 0 -18.333 -3.33301 -25 -10c-7.33301 -7.33301 -11 -16 -11 -26v-183c0 -10 3.66699 -18.667 11 -26s15.666 -11 24.999 -11
c10 0 18.667 3.66699 26 11c7.33301 8.66699 11 17.334 11 26.001v183z" />
    <glyph glyph-name="uE645" unicode="&#xe645;" horiz-adv-x="476" 
d="M402 192l0.000976562 2l-164 135l-165 -135v-1v-1v-137c0 -4.66699 2 -9 6 -13c2.66699 -3.33301 6.66699 -5 12 -5h110v109h73v-109h110c5.33301 0 9.66602 1.66699 12.999 5c3.33301 4.66699 5 9 5 13v137zM466.001 212c1.33301 1.33301 1.99902 3.33301 1.99902 6
s-1 5 -3 7l-63 52v116c0 2 -0.666992 4.33301 -2 7c-2.66699 1.33301 -5 2 -7 2h-55c-2.66699 0 -4.66699 -0.666992 -6 -2c-2 -2 -3 -4.33301 -3 -7v-56l-70 59c-5.33301 4.66699 -12.333 7 -21 7c-9.33301 0 -16.666 -2.33301 -21.999 -7l-205 -171
c-2 -2 -3.33301 -4.33301 -4 -7c0 -1.33301 0.666992 -3.33301 2 -6l18 -21c1.33301 -1.33301 3.33301 -2.66602 6 -3.99902c2 0 4.33301 0.666992 7 2l198 165l197 -165c2.66699 -1.33301 4.66699 -2 6 -2h1c3.33301 1.33301 5.33301 2.66602 6 3.99902z" />
    <glyph glyph-name="uE646" unicode="&#xe646;" horiz-adv-x="439" 
d="M293 219c0 -19.333 -7.33301 -36.333 -22 -51c-14 -14.667 -31.333 -22 -52 -22c-20 0 -37 7.33301 -51 22c-14.667 14 -22 31 -22 51c0 20.667 7.33301 38 22 52c14.667 14.667 31.667 22 51 22c20 0 37.333 -7.33301 52 -22s22 -32 22 -52zM439 251
c0 1.33301 -0.665039 3.33105 -1.99805 5.99805c-1.33301 1.33301 -3.33301 2.66602 -6 3.99902l-53 8c-4 12 -7.66699 21.333 -11 28c1.33301 2 6.33301 8.66699 15 20l9 11c3.33301 4 5.33301 6.66699 6 8c1.33301 2.66699 2 5 2 7c0 1.33301 -0.666992 3.33301 -2 6
c-6.66699 9.33301 -22.334 25.333 -47.001 48c-2.66699 2 -5 3 -7 3c-3.33301 0 -5.66602 -0.666992 -6.99902 -2l-41 -31c-10.667 5.33301 -19.334 9 -26.001 11l-8 52c0 2.66699 -1 4.66699 -3 6c-2 2 -4.33301 3 -7 3h-63c-5.33301 0 -9 -2.66699 -11 -8
c-2.66699 -14.667 -5.33398 -32.334 -8.00098 -53.001c-3.33301 -1.33301 -12 -5 -26 -11l-39 30c-2.66699 2 -5.33398 3 -8.00098 3c-3.33301 0 -12.333 -6.66699 -27 -20c-14 -13.333 -23.333 -23.666 -28 -30.999c-1.33301 -1.33301 -2 -3.33301 -2 -6
c0 -2 0.666992 -4.33301 2 -7c12 -14.667 22.333 -28 31 -40c-3.33301 -5.33301 -7 -14 -11 -26l-53 -8c-1.33301 0 -3.33301 -1.33301 -6 -4c-1.33301 -2.66699 -2 -4.66699 -2 -6v-64c0 -1.33301 0.666992 -3.33301 2 -6c2.66699 -2.66699 4.66699 -4 6 -4l53 -8
c1.33301 -7.33301 5 -16.666 11 -27.999c-1.33301 -2 -6.33301 -8.66699 -15 -20l-9 -11c-3.33301 -4 -5.33301 -6.66699 -6 -8c-1.33301 -2.66699 -2 -5 -2 -7c0 -1.33301 0.666992 -3.33301 2 -6c6.66699 -10.667 22.334 -26.667 47.001 -48c2 -2 4.33301 -3 7 -3
c4 0 6.33301 0.666992 7 2l41 31c10.667 -5.33301 19 -9 25 -11l8 -52c0.666992 -2.66699 2 -5 4 -7c2.66699 -1.33301 5 -2 7 -2h63c5.33301 0 8.66602 2.66699 9.99902 8c3.33301 10.667 6.33301 28.334 9 53.001c3.33301 1.33301 12 5 26 11l39 -31
c2 -1.33301 4.66699 -2 8 -2c4.66699 0 13.334 6.66699 26.001 20c13.333 12.667 23 23 29 31c1.33301 2.66699 2 4.66699 2 6c0 2.66699 -1 5 -3 7c-16 20.667 -26 34 -30 40c1.33301 2.66699 5 11.334 11 26.001l53 8c2 0 4 1.33301 6 4c1.33301 2.66699 2 4.66699 2 6v64
z" />
    <glyph glyph-name="uE647" unicode="&#xe647;" horiz-adv-x="439" 
d="M113 89c0.666992 2 0.000976562 4 -1.99902 6s-3.66699 2 -5 0c-2.66699 -1.33301 -2.33398 -3 0.999023 -5c2 -2.66699 4 -3 6 -1zM101.001 107c-2.66699 2.66699 -4.33301 3.00195 -5 1.00195c-1.33301 -0.666992 -1.33301 -2.33398 0 -5.00098s3 -3.33398 5 -2.00098
c0.666992 0.666992 0.666992 2.66699 0 6zM83.002 124.002c0.666992 0.666992 0 1.66699 -2 3c-2 0.666992 -3.33301 0.666992 -4 0c0 -1.33301 0.666992 -2.66602 2 -3.99902c2 -0.666992 3.33301 -0.333984 4 0.999023zM92.002 114.002
c0.666992 0.666992 0.333008 2.33301 -1 5c-2 2 -3.33301 2 -4 0c-0.666992 -0.666992 -0.666992 -2 0 -4c2 -2 3.66699 -2.33301 5 -1zM129.001 82.001c0 2.66699 -1.33301 4.33398 -4 5.00098c-3.33301 0 -5 -0.666992 -5 -2
c-0.666992 -2.66699 0.333008 -4.33398 3 -5.00098s4.66699 0 6 2zM147.001 81.001c0 2 -1.66699 3 -5 3s-5 -1 -5 -3c0 -2.66699 1.66699 -4 5 -4s5 1.33301 5 4zM163.001 83.001c0 2 -1.66797 3.00098 -5.00098 3.00098c-2.66699 -0.666992 -4 -2 -4 -4
c0.666992 -2 2.33398 -3 5.00098 -3c4 1.33301 5.33301 2.66602 4 3.99902zM439 357.002c0 22.667 -8.00488 42.0039 -24.0049 58.0039s-35.333 24 -58 24h-275c-22.667 0 -42 -8 -58 -24s-24 -35.333 -24 -58v-275c0 -22.667 8 -42 24 -58s35.333 -24 58 -24h64h10
c2.66699 1.33301 4.66699 2.66602 6 3.99902c2 2 3 5.33301 3 10v19v30l-7 -2c-1.33301 0 -3.66602 -0.166992 -6.99902 -0.5s-6.33301 -0.5 -9 -0.5c-2 0 -5.16699 0.333008 -9.5 1s-7.5 1 -9.5 1c-7.33301 2 -14 5 -20 9c-6 4.66699 -10 10.667 -12 18l-3 6
c-1.33301 2.66699 -4.33301 7.66699 -9 15c-4.66699 5.33301 -8.66699 9 -12 11l-2 1c-1.33301 0.666992 -2.66602 1.66699 -3.99902 3c-0.666992 1.33301 -1.66699 2.66602 -3 3.99902c0 2 0.666992 3.33301 2 4c0.666992 0.666992 3.33398 1 8.00098 1l6 -1
c4 -0.666992 8.66699 -3 14 -7c6.66699 -5.33301 11.334 -10.333 14.001 -15c4.66699 -8 10 -13.667 16 -17c5.33301 -4.66699 11.333 -7 18 -7c4.66699 0 10.334 0.666992 17.001 2c5.33301 1.33301 9.33301 2.66602 12 3.99902c2 12.667 6.66699 22.667 14 30
c-13.333 1.33301 -23 3 -29 5c-6 1.33301 -15 5 -27 11c-10 5.33301 -17.667 11.666 -23 18.999c-6 8 -11 18 -15 30s-6 26.333 -6 43c0 22.667 7.66699 42.334 23 59.001c-6.66699 16.667 -6 36 2 58c4.66699 1.33301 13 0 25 -4c9.33301 -4 17 -7.66699 23 -11
c8 -4.66699 12.333 -7.33398 13 -8.00098c18 5.33301 36 8 54 8c18.667 0 37 -2.66699 55 -8l11 7c8 4.66699 16.667 9 26 13c10.667 4 18.667 5 24 3c8 -22 8.66699 -41.333 2 -58c14.667 -15.333 22 -35 22 -59c0 -15.333 -1.66699 -29.666 -5 -42.999
c-4 -13.333 -9.33301 -23.333 -16 -30c-6 -8 -13.667 -14.333 -23 -19c-10 -5.33301 -19 -9 -27 -11c-5.33301 -2 -15 -3.66699 -29 -5c10 -8.66699 15 -22.334 15 -41.001v-68c0 -4 0.333008 -6.66699 1 -8c1.33301 -2.66699 3 -4 5 -4c2.66699 -1.33301 4.66699 -2 6 -2h7
h64c22.667 0 42 8 58 24s24 35.333 24 58v275z" />
    <glyph glyph-name="uE648" unicode="&#xe648;" horiz-adv-x="439" 
d="M439 219c0 40 -10.0049 77.0039 -30.0049 111.004c-19.333 33.333 -45.666 59.666 -78.999 78.999c-34 20 -71 30 -111 30c-39.333 0 -76 -10 -110 -30c-32.667 -18.667 -59.334 -45 -80.001 -79c-19.333 -34.667 -29 -71.667 -29 -111c0 -47.333 14 -90.333 42 -129
c28 -37.333 64 -63.666 108 -78.999c5.33301 -0.666992 9 0 11 2c2.66699 2 4 5 4 9v15v26l-7 -2c-1.33301 0 -3.66602 -0.166992 -6.99902 -0.5s-6.33301 -0.5 -9 -0.5c-2 0 -5.16699 0.333008 -9.5 1s-7.5 1 -9.5 1c-7.33301 2 -14 5 -20 9c-6 4.66699 -10 10.667 -12 18
l-3 6c-1.33301 2.66699 -4.33301 7.66699 -9 15c-4.66699 5.33301 -8.66699 9 -12 11l-2 1c-1.33301 0.666992 -2.66602 1.66699 -3.99902 3c-0.666992 1.33301 -1.66699 2.66602 -3 3.99902c0 2 0.666992 3.33301 2 4c0.666992 0.666992 3.33398 1 8.00098 1l6 -1
c4 -0.666992 8.66699 -3 14 -7c6.66699 -5.33301 11.334 -10.333 14.001 -15c4.66699 -8 10 -13.667 16 -17c5.33301 -4.66699 11.333 -7 18 -7c4.66699 0 10.334 0.666992 17.001 2c5.33301 1.33301 9.33301 2.66602 12 3.99902c2 12.667 6.66699 22.667 14 30
c-13.333 1.33301 -23 3 -29 5c-6 1.33301 -15 5 -27 11c-10 5.33301 -17.667 11.666 -23 18.999c-6 8 -11 18 -15 30s-6 26.333 -6 43c0 22.667 7.66699 42.334 23 59.001c-6.66699 16.667 -6 36 2 58c4.66699 1.33301 13 0 25 -4c9.33301 -4 17 -7.66699 23 -11
c8 -4.66699 12.333 -7.33398 13 -8.00098c18 5.33301 36 8 54 8c18.667 0 37 -2.66699 55 -8l11 7c8 4.66699 16.667 9 26 13c10.667 4 18.667 5 24 3c8 -22 8.66699 -41.333 2 -58c14.667 -15.333 22 -35 22 -59c0 -15.333 -1.66699 -29.666 -5 -42.999
c-4 -13.333 -9.33301 -23.333 -16 -30c-6 -8 -13.667 -14.333 -23 -19c-10 -5.33301 -19 -9 -27 -11c-5.33301 -2 -15 -3.66699 -29 -5c10 -8.66699 15 -22.334 15 -41.001v-60c0 -4 1.33301 -7 4 -9c2 -2 5.66699 -2.66699 11 -2c44 15.333 80 41.666 108 78.999
c28 38.667 42 81.667 42 129z" />
    </font>
</defs>
</svg>
